solid OBJECT
  facet normal 1 0 0
    outer loop
      vertex -1.0716705322265625 -2.8286411762237549 -0.47281455993652344
      vertex -1.0716705322265625 -2.1746411323547363 -0.80140143632888794
      vertex -1.0716705322265625 -2.1746411323547363 -0.47281455993652344
    endloop
  endfacet
  facet normal 1 -0 0
    outer loop
      vertex -1.0716705322265625 -2.6767141819000244 -1.1859915256500244
      vertex -1.0716705322265625 -2.1746411323547363 -1.1859915256500244
      vertex -1.0716705322265625 -2.1746411323547363 -1.1299883127212524
    endloop
  endfacet
  facet normal 1 0 0
    outer loop
      vertex -1.0716705322265625 -2.1746411323547363 -1.1299883127212524
      vertex -1.0716705322265625 -2.1746411323547363 -0.80140143632888794
      vertex -1.0716705322265625 -2.6767141819000244 -1.1859915256500244
    endloop
  endfacet
  facet normal 1 -0 0
    outer loop
      vertex -1.0716705322265625 -2.8286411762237549 -0.47281455993652344
      vertex -1.0716705322265625 -3.4826409816741943 -0.47281455993652344
      vertex -1.0716705322265625 -3.1787874698638916 -1.1859915256500244
    endloop
  endfacet
  facet normal 1 0 0
    outer loop
      vertex -1.0716705322265625 -2.8286411762237549 -0.47281455993652344
      vertex -1.0716705322265625 -3.1787874698638916 -1.1859915256500244
      vertex -1.0716705322265625 -2.6767141819000244 -1.1859915256500244
    endloop
  endfacet
  facet normal 1 -0 0
    outer loop
      vertex -1.0716705322265625 -2.1746411323547363 -0.80140143632888794
      vertex -1.0716705322265625 -2.8286411762237549 -0.47281455993652344
      vertex -1.0716705322265625 -2.6767141819000244 -1.1859915256500244
    endloop
  endfacet
  facet normal -1 0 0
    outer loop
      vertex 1.0716705322265625 -3.4826409816741943 -0.47281455993652344
      vertex 1.0716705322265625 -2.8286411762237549 -0.47281455993652344
      vertex 1.0716705322265625 -2.6767141819000244 -1.1859915256500244
    endloop
  endfacet
  facet normal -1 0 0
    outer loop
      vertex 1.0716705322265625 -3.4826409816741943 -0.47281455993652344
      vertex 1.0716705322265625 -2.6767141819000244 -1.1859915256500244
      vertex 1.0716705322265625 -3.1787874698638916 -1.1859915256500244
    endloop
  endfacet
  facet normal -1 -0 0
    outer loop
      vertex 1.0716705322265625 -2.6767141819000244 -1.1859915256500244
      vertex 1.0716705322265625 -2.8286411762237549 -0.47281455993652344
      vertex 1.0716705322265625 -2.1746411323547363 -0.80140143632888794
    endloop
  endfacet
  facet normal -1 0 0
    outer loop
      vertex 1.0716705322265625 -2.8286411762237549 -0.47281455993652344
      vertex 1.0716705322265625 -2.1746411323547363 -0.47281455993652344
      vertex 1.0716705322265625 -2.1746411323547363 -0.80140143632888794
    endloop
  endfacet
  facet normal -1 0 0
    outer loop
      vertex 1.0716705322265625 -2.6767141819000244 -1.1859915256500244
      vertex 1.0716705322265625 -2.1746411323547363 -1.1299883127212524
      vertex 1.0716705322265625 -2.1746411323547363 -1.1859915256500244
    endloop
  endfacet
  facet normal -1 0 0
    outer loop
      vertex 1.0716705322265625 -2.6767141819000244 -1.1859915256500244
      vertex 1.0716705322265625 -2.1746411323547363 -0.80140143632888794
      vertex 1.0716705322265625 -2.1746411323547363 -1.1299883127212524
    endloop
  endfacet
  facet normal -0 0 1
    outer loop
      vertex -1.7985612998927536e-14 -3.1787874698638916 -1.1859915256500244
      vertex 1.0716705322265625 -3.1787874698638916 -1.1859915256500244
      vertex 1.0716705322265625 -2.6767141819000244 -1.1859915256500244
    endloop
  endfacet
  facet normal -0 0 1
    outer loop
      vertex -1.0716705322265625 -3.1787874698638916 -1.1859915256500244
      vertex -1.7985612998927536e-14 -3.1787874698638916 -1.1859915256500244
      vertex -1.0716705322265625 -2.6767141819000244 -1.1859915256500244
    endloop
  endfacet
  facet normal 0 -0 1
    outer loop
      vertex 1.0716705322265625 -2.6767141819000244 -1.1859915256500244
      vertex -1.0716705322265625 -2.6767141819000244 -1.1859915256500244
      vertex -1.7985612998927536e-14 -3.1787874698638916 -1.1859915256500244
    endloop
  endfacet
  facet normal -0 0 1
    outer loop
      vertex -1.0716705322265625 -2.6767141819000244 -1.1859915256500244
      vertex 1.0716705322265625 -2.6767141819000244 -1.1859915256500244
      vertex -0.21433411538600922 -2.1746411323547363 -1.1859915256500244
    endloop
  endfacet
  facet normal -0 -0 1
    outer loop
      vertex 1.0716705322265625 -2.6767141819000244 -1.1859915256500244
      vertex 1.0716705322265625 -2.1746411323547363 -1.1859915256500244
      vertex 0.64300233125686646 -2.1746411323547363 -1.1859915256500244
    endloop
  endfacet
  facet normal 0 0 1
    outer loop
      vertex 1.0716705322265625 -2.6767141819000244 -1.1859915256500244
      vertex 0.64300233125686646 -2.1746411323547363 -1.1859915256500244
      vertex 0.21433411538600922 -2.1746411323547363 -1.1859915256500244
    endloop
  endfacet
  facet normal 0 -0 1
    outer loop
      vertex -1.0716705322265625 -2.6767141819000244 -1.1859915256500244
      vertex -0.21433411538600922 -2.1746411323547363 -1.1859915256500244
      vertex -0.64300233125686646 -2.1746411323547363 -1.1859915256500244
    endloop
  endfacet
  facet normal -0 0 1
    outer loop
      vertex -1.0716705322265625 -2.6767141819000244 -1.1859915256500244
      vertex -0.64300233125686646 -2.1746411323547363 -1.1859915256500244
      vertex -1.0716705322265625 -2.1746411323547363 -1.1859915256500244
    endloop
  endfacet
  facet normal -0 -0 1
    outer loop
      vertex 1.0716705322265625 -2.6767141819000244 -1.1859915256500244
      vertex 0.21433411538600922 -2.1746411323547363 -1.1859915256500244
      vertex -0.21433411538600922 -2.1746411323547363 -1.1859915256500244
    endloop
  endfacet
  facet normal 0 0 1
    outer loop
      vertex 1.0716705322265625 -2.1746411323547363 -0.47281455993652344
      vertex 1.0716705322265625 -2.8286411762237549 -0.47281455993652344
      vertex 1.343999981880188 -2.8286411762237549 -0.47281455993652344
    endloop
  endfacet
  facet normal 0 0 1
    outer loop
      vertex 1.0716705322265625 -2.1746411323547363 -0.47281455993652344
      vertex 1.343999981880188 -2.8286411762237549 -0.47281455993652344
      vertex 1.343999981880188 -2.1746411323547363 -0.47281455993652344
    endloop
  endfacet
  facet normal -0 -0 1
    outer loop
      vertex 1.343999981880188 -3.4826409816741943 -0.47281455993652344
      vertex 1.343999981880188 -2.8286411762237549 -0.47281455993652344
      vertex 1.0716705322265625 -2.8286411762237549 -0.47281455993652344
    endloop
  endfacet
  facet normal -0 -0 1
    outer loop
      vertex 1.343999981880188 -3.4826409816741943 -0.47281455993652344
      vertex 1.0716705322265625 -2.8286411762237549 -0.47281455993652344
      vertex 1.0716705322265625 -3.4826409816741943 -0.47281455993652344
    endloop
  endfacet
  facet normal 0 0 1
    outer loop
      vertex -1.343999981880188 -2.1746411323547363 -0.47281455993652344
      vertex -1.343999981880188 -2.8286411762237549 -0.47281455993652344
      vertex -1.0716705322265625 -2.8286411762237549 -0.47281455993652344
    endloop
  endfacet
  facet normal 0 0 1
    outer loop
      vertex -1.343999981880188 -2.1746411323547363 -0.47281455993652344
      vertex -1.0716705322265625 -2.8286411762237549 -0.47281455993652344
      vertex -1.0716705322265625 -2.1746411323547363 -0.47281455993652344
    endloop
  endfacet
  facet normal -0 -0 1
    outer loop
      vertex -1.0716705322265625 -3.4826409816741943 -0.47281455993652344
      vertex -1.0716705322265625 -2.8286411762237549 -0.47281455993652344
      vertex -1.343999981880188 -2.8286411762237549 -0.47281455993652344
    endloop
  endfacet
  facet normal -0 -0 1
    outer loop
      vertex -1.0716705322265625 -3.4826409816741943 -0.47281455993652344
      vertex -1.343999981880188 -2.8286411762237549 -0.47281455993652344
      vertex -1.343999981880188 -3.4826409816741943 -0.47281455993652344
    endloop
  endfacet
  facet normal -1 0 0
    outer loop
      vertex -1.343999981880188 -3.1196410655975342 -1.3248145580291748
      vertex -1.343999981880188 -2.1746411323547363 -1.279814600944519
      vertex -1.343999981880188 -2.1746411323547363 -1.3248145580291748
    endloop
  endfacet
  facet normal -1 0 0
    outer loop
      vertex -1.343999981880188 -3.1388137340545654 -1.279814600944519
      vertex -1.343999981880188 -2.1746411323547363 -1.1299883127212524
      vertex -1.343999981880188 -2.1746411323547363 -1.279814600944519
    endloop
  endfacet
  facet normal -1 0 0
    outer loop
      vertex -1.343999981880188 -3.1787874698638916 -1.1859915256500244
      vertex -1.343999981880188 -2.1746411323547363 -1.0578145980834961
      vertex -1.343999981880188 -2.1746411323547363 -1.1028145551681519
    endloop
  endfacet
  facet normal -1 0 0
    outer loop
      vertex -1.343999981880188 -2.8286411762237549 -0.47281455993652344
      vertex -1.343999981880188 -2.1746411323547363 -0.47281455993652344
      vertex -1.343999981880188 -2.1746411323547363 -0.76531457901000977
    endloop
  endfacet
  facet normal -1 0 0
    outer loop
      vertex -1.343999981880188 -2.1746411323547363 -0.76531457901000977
      vertex -1.343999981880188 -2.1746411323547363 -1.0578145980834961
      vertex -1.343999981880188 -3.2372326850891113 -1.0488145351409912
    endloop
  endfacet
  facet normal -1 -0 0
    outer loop
      vertex -1.343999981880188 -2.1746411323547363 -1.1028145551681519
      vertex -1.343999981880188 -2.1746411323547363 -1.1299883127212524
      vertex -1.343999981880188 -3.1787874698638916 -1.1859915256500244
    endloop
  endfacet
  facet normal -1 0 -0
    outer loop
      vertex -1.343999981880188 -3.1388137340545654 -1.279814600944519
      vertex -1.343999981880188 -3.1787874698638916 -1.1859915256500244
      vertex -1.343999981880188 -2.1746411323547363 -1.1299883127212524
    endloop
  endfacet
  facet normal -1 0 -0
    outer loop
      vertex -1.343999981880188 -3.1787874698638916 -1.1859915256500244
      vertex -1.343999981880188 -3.2142255306243896 -1.1028145551681519
      vertex -1.343999981880188 -2.1746411323547363 -1.0578145980834961
    endloop
  endfacet
  facet normal -1 0 -0
    outer loop
      vertex -1.343999981880188 -2.1746411323547363 -1.0578145980834961
      vertex -1.343999981880188 -3.2142255306243896 -1.1028145551681519
      vertex -1.343999981880188 -3.2333981990814209 -1.0578145980834961
    endloop
  endfacet
  facet normal -1 -0 0
    outer loop
      vertex -1.343999981880188 -2.8286411762237549 -0.47281455993652344
      vertex -1.343999981880188 -2.1746411323547363 -0.76531457901000977
      vertex -1.343999981880188 -3.2372326850891113 -1.0488145351409912
    endloop
  endfacet
  facet normal -1 0 0
    outer loop
      vertex -1.343999981880188 -3.2372326850891113 -1.0488145351409912
      vertex -1.343999981880188 -2.1746411323547363 -1.0578145980834961
      vertex -1.343999981880188 -3.2333981990814209 -1.0578145980834961
    endloop
  endfacet
  facet normal -1 0 -0
    outer loop
      vertex -1.343999981880188 -2.8286411762237549 -0.47281455993652344
      vertex -1.343999981880188 -3.2372326850891113 -1.0488145351409912
      vertex -1.343999981880188 -3.4826409816741943 -0.47281455993652344
    endloop
  endfacet
  facet normal -1 0 -0
    outer loop
      vertex -1.343999981880188 -3.1196410655975342 -1.3248145580291748
      vertex -1.343999981880188 -3.1388137340545654 -1.279814600944519
      vertex -1.343999981880188 -2.1746411323547363 -1.279814600944519
    endloop
  endfacet
  facet normal 0 -0 -1
    outer loop
      vertex -0.89600002765655518 -2.1746411323547363 -1.3248145580291748
      vertex -1.343999981880188 -3.1196410655975342 -1.3248145580291748
      vertex -1.343999981880188 -2.1746411323547363 -1.3248145580291748
    endloop
  endfacet
  facet normal -0 -0 -1
    outer loop
      vertex 1.343999981880188 -3.1196410655975342 -1.3248145580291748
      vertex 5.4855219504815938e-16 -3.1196410655975342 -1.3248145580291748
      vertex 0.44800001382827759 -2.1746411323547363 -1.3248145580291748
    endloop
  endfacet
  facet normal -0 0 -1
    outer loop
      vertex 1.343999981880188 -3.1196410655975342 -1.3248145580291748
      vertex 0.44800001382827759 -2.1746411323547363 -1.3248145580291748
      vertex 0.89600002765655518 -2.1746411323547363 -1.3248145580291748
    endloop
  endfacet
  facet normal -0 -0 -1
    outer loop
      vertex 5.4855219504815938e-16 -3.1196410655975342 -1.3248145580291748
      vertex -1.343999981880188 -3.1196410655975342 -1.3248145580291748
      vertex -0.89600002765655518 -2.1746411323547363 -1.3248145580291748
    endloop
  endfacet
  facet normal -0 0 -1
    outer loop
      vertex 5.4855219504815938e-16 -3.1196410655975342 -1.3248145580291748
      vertex -0.89600002765655518 -2.1746411323547363 -1.3248145580291748
      vertex -0.44800001382827759 -2.1746411323547363 -1.3248145580291748
    endloop
  endfacet
  facet normal -0 0 -1
    outer loop
      vertex 5.4855219504815938e-16 -3.1196410655975342 -1.3248145580291748
      vertex -0.44800001382827759 -2.1746411323547363 -1.3248145580291748
      vertex -2.1407019206728202e-15 -2.1746411323547363 -1.3248145580291748
    endloop
  endfacet
  facet normal -0 0 -1
    outer loop
      vertex 1.343999981880188 -3.1196410655975342 -1.3248145580291748
      vertex 0.89600002765655518 -2.1746411323547363 -1.3248145580291748
      vertex 1.343999981880188 -2.1746411323547363 -1.3248145580291748
    endloop
  endfacet
  facet normal 0 0 -1
    outer loop
      vertex 5.4855219504815938e-16 -3.1196410655975342 -1.3248145580291748
      vertex -2.1407019206728202e-15 -2.1746411323547363 -1.3248145580291748
      vertex 0.44800001382827759 -2.1746411323547363 -1.3248145580291748
    endloop
  endfacet
  facet normal 0 1 0
    outer loop
      vertex 1.343999981880188 -2.1746411323547363 -0.76531457901000977
      vertex 1.0716705322265625 -2.1746411323547363 -0.47281455993652344
      vertex 1.343999981880188 -2.1746411323547363 -0.47281455993652344
    endloop
  endfacet
  facet normal 0 1 0
    outer loop
      vertex 1.0716705322265625 -2.1746411323547363 -0.80140143632888794
      vertex 1.343999981880188 -2.1746411323547363 -0.76531457901000977
      vertex 1.343999981880188 -2.1746411323547363 -1.0578145980834961
    endloop
  endfacet
  facet normal -0 1 -0
    outer loop
      vertex 1.343999981880188 -2.1746411323547363 -1.0578145980834961
      vertex 1.0716705322265625 -2.1746411323547363 -1.1299883127212524
      vertex 1.0716705322265625 -2.1746411323547363 -0.80140143632888794
    endloop
  endfacet
  facet normal 0 1 -0
    outer loop
      vertex 1.0716705322265625 -2.1746411323547363 -1.1299883127212524
      vertex 1.343999981880188 -2.1746411323547363 -1.0578145980834961
      vertex 1.0716705322265625 -2.1746411323547363 -1.1859915256500244
    endloop
  endfacet
  facet normal -0 1 -0
    outer loop
      vertex 1.0716705322265625 -2.1746411323547363 -0.47281455993652344
      vertex 1.343999981880188 -2.1746411323547363 -0.76531457901000977
      vertex 1.0716705322265625 -2.1746411323547363 -0.80140143632888794
    endloop
  endfacet
  facet normal 0 1 0
    outer loop
      vertex -1.343999981880188 -2.1746411323547363 -0.47281455993652344
      vertex -1.0716705322265625 -2.1746411323547363 -0.47281455993652344
      vertex -1.343999981880188 -2.1746411323547363 -0.76531457901000977
    endloop
  endfacet
  facet normal 0 1 0
    outer loop
      vertex -1.0716705322265625 -2.1746411323547363 -0.80140143632888794
      vertex -1.343999981880188 -2.1746411323547363 -0.76531457901000977
      vertex -1.0716705322265625 -2.1746411323547363 -0.47281455993652344
    endloop
  endfacet
  facet normal 0 1 -0
    outer loop
      vertex -1.343999981880188 -2.1746411323547363 -1.0578145980834961
      vertex -1.343999981880188 -2.1746411323547363 -0.76531457901000977
      vertex -1.0716705322265625 -2.1746411323547363 -0.80140143632888794
    endloop
  endfacet
  facet normal 0 1 0
    outer loop
      vertex -1.343999981880188 -2.1746411323547363 -1.1028145551681519
      vertex -1.343999981880188 -2.1746411323547363 -1.0578145980834961
      vertex -1.0716705322265625 -2.1746411323547363 -1.1299883127212524
    endloop
  endfacet
  facet normal -0 1 0
    outer loop
      vertex -1.0716705322265625 -2.1746411323547363 -0.80140143632888794
      vertex -1.0716705322265625 -2.1746411323547363 -1.1299883127212524
      vertex -1.343999981880188 -2.1746411323547363 -1.0578145980834961
    endloop
  endfacet
  facet normal 0 1 0
    outer loop
      vertex -1.0716705322265625 -2.1746411323547363 -1.1299883127212524
      vertex -1.343999981880188 -2.1746411323547363 -1.1299883127212524
      vertex -1.343999981880188 -2.1746411323547363 -1.1028145551681519
    endloop
  endfacet
  facet normal 0 1 0
    outer loop
      vertex -1.0716705322265625 -2.1746411323547363 -1.1859915256500244
      vertex -1.343999981880188 -2.1746411323547363 -1.1299883127212524
      vertex -1.0716705322265625 -2.1746411323547363 -1.1299883127212524
    endloop
  endfacet
  facet normal -0 1 0
    outer loop
      vertex 0.64300233125686646 -2.1746411323547363 -1.1859915256500244
      vertex 0.44800001382827759 -2.1746411323547363 -1.3248145580291748
      vertex 0.21433411538600922 -2.1746411323547363 -1.1859915256500244
    endloop
  endfacet
  facet normal -0 1 0
    outer loop
      vertex 1.0716705322265625 -2.1746411323547363 -1.1859915256500244
      vertex 0.89600002765655518 -2.1746411323547363 -1.3248145580291748
      vertex 0.64300233125686646 -2.1746411323547363 -1.1859915256500244
    endloop
  endfacet
  facet normal 0 1 -0
    outer loop
      vertex 1.0716705322265625 -2.1746411323547363 -1.1859915256500244
      vertex 1.343999981880188 -2.1746411323547363 -1.3248145580291748
      vertex 0.89600002765655518 -2.1746411323547363 -1.3248145580291748
    endloop
  endfacet
  facet normal 0 1 -0
    outer loop
      vertex 0.21433411538600922 -2.1746411323547363 -1.1859915256500244
      vertex 0.44800001382827759 -2.1746411323547363 -1.3248145580291748
      vertex -2.1407019206728202e-15 -2.1746411323547363 -1.3248145580291748
    endloop
  endfacet
  facet normal 0 1 -0
    outer loop
      vertex 0.64300233125686646 -2.1746411323547363 -1.1859915256500244
      vertex 0.89600002765655518 -2.1746411323547363 -1.3248145580291748
      vertex 0.44800001382827759 -2.1746411323547363 -1.3248145580291748
    endloop
  endfacet
  facet normal 0 1 0
    outer loop
      vertex 1.343999981880188 -2.1746411323547363 -1.3248145580291748
      vertex 1.0716705322265625 -2.1746411323547363 -1.1859915256500244
      vertex 1.343999981880188 -2.1746411323547363 -1.0578145980834961
    endloop
  endfacet
  facet normal -0 1 -0
    outer loop
      vertex -0.21433411538600922 -2.1746411323547363 -1.1859915256500244
      vertex 0.21433411538600922 -2.1746411323547363 -1.1859915256500244
      vertex -2.1407019206728202e-15 -2.1746411323547363 -1.3248145580291748
    endloop
  endfacet
  facet normal -0 1 0
    outer loop
      vertex -0.64300233125686646 -2.1746411323547363 -1.1859915256500244
      vertex -0.89600002765655518 -2.1746411323547363 -1.3248145580291748
      vertex -1.0716705322265625 -2.1746411323547363 -1.1859915256500244
    endloop
  endfacet
  facet normal -0 1 0
    outer loop
      vertex -0.21433411538600922 -2.1746411323547363 -1.1859915256500244
      vertex -0.44800001382827759 -2.1746411323547363 -1.3248145580291748
      vertex -0.64300233125686646 -2.1746411323547363 -1.1859915256500244
    endloop
  endfacet
  facet normal 0 1 -0
    outer loop
      vertex -1.0716705322265625 -2.1746411323547363 -1.1859915256500244
      vertex -0.89600002765655518 -2.1746411323547363 -1.3248145580291748
      vertex -1.343999981880188 -2.1746411323547363 -1.279814600944519
    endloop
  endfacet
  facet normal 0 1 0
    outer loop
      vertex -0.89600002765655518 -2.1746411323547363 -1.3248145580291748
      vertex -1.343999981880188 -2.1746411323547363 -1.3248145580291748
      vertex -1.343999981880188 -2.1746411323547363 -1.279814600944519
    endloop
  endfacet
  facet normal 0 1 0
    outer loop
      vertex -0.44800001382827759 -2.1746411323547363 -1.3248145580291748
      vertex -0.89600002765655518 -2.1746411323547363 -1.3248145580291748
      vertex -0.64300233125686646 -2.1746411323547363 -1.1859915256500244
    endloop
  endfacet
  facet normal 0 1 -0
    outer loop
      vertex -0.44800001382827759 -2.1746411323547363 -1.3248145580291748
      vertex -0.21433411538600922 -2.1746411323547363 -1.1859915256500244
      vertex -2.1407019206728202e-15 -2.1746411323547363 -1.3248145580291748
    endloop
  endfacet
  facet normal -0 1 -0
    outer loop
      vertex -1.343999981880188 -2.1746411323547363 -1.1299883127212524
      vertex -1.0716705322265625 -2.1746411323547363 -1.1859915256500244
      vertex -1.343999981880188 -2.1746411323547363 -1.279814600944519
    endloop
  endfacet
  facet normal 4.1611015560438323e-07 -0.91998080179392094 -0.39196342218431718
    outer loop
      vertex -1.343999981880188 -3.4826409816741943 -0.47281455993652344
      vertex -1.343999981880188 -3.2372326850891113 -1.0488145351409912
      vertex -1.0716705322265625 -3.1787874698638916 -1.1859915256500244
    endloop
  endfacet
  facet normal 0 -0.9199807444972532 -0.39196355666602445
    outer loop
      vertex -1.343999981880188 -3.4826409816741943 -0.47281455993652344
      vertex -1.0716705322265625 -3.1787874698638916 -1.1859915256500244
      vertex -1.0716705322265625 -3.4826409816741943 -0.47281455993652344
    endloop
  endfacet
  facet normal 2.7644834674093327e-06 -0.91998248292495333 -0.39195947635386436
    outer loop
      vertex -1.343999981880188 -3.2333981990814209 -1.0578145980834961
      vertex -1.0716705322265625 -3.1787874698638916 -1.1859915256500244
      vertex -1.343999981880188 -3.2372326850891113 -1.0488145351409912
    endloop
  endfacet
  facet normal -0 -0.9199808276578687 -0.39196336147903299
    outer loop
      vertex 1.0716705322265625 -3.4826409816741943 -0.47281455993652344
      vertex 1.343999981880188 -3.2333981990814209 -1.0578145980834961
      vertex 1.343999981880188 -3.4826409816741943 -0.47281455993652344
    endloop
  endfacet
  facet normal -9.9580943331277716e-07 -0.91997960201663231 -0.39196623817916648
    outer loop
      vertex -1.0716705322265625 -3.1787874698638916 -1.1859915256500244
      vertex -1.343999981880188 -3.2333981990814209 -1.0578145980834961
      vertex -1.343999981880188 -3.2142255306243896 -1.1028145551681519
    endloop
  endfacet
  facet normal 0 -0.91998135582494922 -0.39196212181088158
    outer loop
      vertex -1.343999981880188 -3.1388137340545654 -1.279814600944519
      vertex -1.0716705322265625 -3.1787874698638916 -1.1859915256500244
      vertex -1.343999981880188 -3.1787874698638916 -1.1859915256500244
    endloop
  endfacet
  facet normal 1.6756050527570154e-06 -0.91997960201579698 -0.39196623817881054
    outer loop
      vertex -1.0716705322265625 -3.1787874698638916 -1.1859915256500244
      vertex -1.343999981880188 -3.1388137340545654 -1.279814600944519
      vertex -1.343999981880188 -3.1196410655975342 -1.3248145580291748
    endloop
  endfacet
  facet normal 0 -0.91998078732346411 -0.39196345614827299
    outer loop
      vertex 5.4855219504815938e-16 -3.1196410655975342 -1.3248145580291748
      vertex -1.0716705322265625 -3.1787874698638916 -1.1859915256500244
      vertex -1.343999981880188 -3.1196410655975342 -1.3248145580291748
    endloop
  endfacet
  facet normal -4.9539842582252781e-07 -0.91998074449714029 -0.39196355666597638
    outer loop
      vertex 1.0716705322265625 -3.1787874698638916 -1.1859915256500244
      vertex 1.343999981880188 -3.2333981990814209 -1.0578145980834961
      vertex 1.0716705322265625 -3.4826409816741943 -0.47281455993652344
    endloop
  endfacet
  facet normal -0 -0.91998078732346411 -0.39196345614827299
    outer loop
      vertex 1.0716705322265625 -3.1787874698638916 -1.1859915256500244
      vertex -1.7985612998927536e-14 -3.1787874698638916 -1.1859915256500244
      vertex 5.4855219504815938e-16 -3.1196410655975342 -1.3248145580291748
    endloop
  endfacet
  facet normal 0 -0.91998078732346411 -0.39196345614827299
    outer loop
      vertex 1.0716705322265625 -3.1787874698638916 -1.1859915256500244
      vertex 5.4855219504815938e-16 -3.1196410655975342 -1.3248145580291748
      vertex 1.343999981880188 -3.1196410655975342 -1.3248145580291748
    endloop
  endfacet
  facet normal -0 -0.91998078732346411 -0.39196345614827299
    outer loop
      vertex 5.4855219504815938e-16 -3.1196410655975342 -1.3248145580291748
      vertex -1.7985612998927536e-14 -3.1787874698638916 -1.1859915256500244
      vertex -1.0716705322265625 -3.1787874698638916 -1.1859915256500244
    endloop
  endfacet
  facet normal -2.8663938388079093e-07 -0.91998058455816889 -0.39196393205998881
    outer loop
      vertex 1.343999981880188 -3.2333981990814209 -1.0578145980834961
      vertex 1.0716705322265625 -3.1787874698638916 -1.1859915256500244
      vertex 1.343999981880188 -3.1196410655975342 -1.3248145580291748
    endloop
  endfacet
  facet normal 0 -0.91998077770927411 -0.3919634787138202
    outer loop
      vertex -1.0716705322265625 -3.1787874698638916 -1.1859915256500244
      vertex -1.343999981880188 -3.2142255306243896 -1.1028145551681519
      vertex -1.343999981880188 -3.1787874698638916 -1.1859915256500244
    endloop
  endfacet
  facet normal 1 -0 0
    outer loop
      vertex 1.343999981880188 -3.1196410655975342 -1.3248145580291748
      vertex 1.343999981880188 -2.1746411323547363 -1.3248145580291748
      vertex 1.343999981880188 -2.1746411323547363 -1.0578145980834961
    endloop
  endfacet
  facet normal 1 0 0
    outer loop
      vertex 1.343999981880188 -2.8286411762237549 -0.47281455993652344
      vertex 1.343999981880188 -2.1746411323547363 -0.76531457901000977
      vertex 1.343999981880188 -2.1746411323547363 -0.47281455993652344
    endloop
  endfacet
  facet normal 1 0 -0
    outer loop
      vertex 1.343999981880188 -2.1746411323547363 -0.76531457901000977
      vertex 1.343999981880188 -3.2333981990814209 -1.0578145980834961
      vertex 1.343999981880188 -2.1746411323547363 -1.0578145980834961
    endloop
  endfacet
  facet normal 1 0 -0
    outer loop
      vertex 1.343999981880188 -2.1746411323547363 -0.76531457901000977
      vertex 1.343999981880188 -2.8286411762237549 -0.47281455993652344
      vertex 1.343999981880188 -3.2333981990814209 -1.0578145980834961
    endloop
  endfacet
  facet normal 1 0 0
    outer loop
      vertex 1.343999981880188 -3.2333981990814209 -1.0578145980834961
      vertex 1.343999981880188 -2.8286411762237549 -0.47281455993652344
      vertex 1.343999981880188 -3.4826409816741943 -0.47281455993652344
    endloop
  endfacet
  facet normal 1 0 0
    outer loop
      vertex 1.343999981880188 -3.1196410655975342 -1.3248145580291748
      vertex 1.343999981880188 -2.1746411323547363 -1.0578145980834961
      vertex 1.343999981880188 -3.2333981990814209 -1.0578145980834961
    endloop
  endfacet
endsolid OBJECT
