solid OBJECT
  facet normal 0.27007281878415229 0 0.96283989975176165
    outer loop
      vertex -0.91990059614181519 1.9450000524520874 -1.1918199062347412
      vertex -0.91990059614181519 1.6950000524520874 -1.1918199062347412
      vertex -0.71807581186294556 1.6950000524520874 -1.2484309673309326
    endloop
  endfacet
  facet normal 0.27007281878415229 -0 0.96283989975176165
    outer loop
      vertex -0.71807581186294556 1.6950000524520874 -1.2484309673309326
      vertex -0.71807581186294556 1.9450000524520874 -1.2484309673309326
      vertex -0.91990059614181519 1.9450000524520874 -1.1918199062347412
    endloop
  endfacet
  facet normal 0.2700722176143458 -2.6724180323604412e-17 0.96284006837733416
    outer loop
      vertex -0.91990059614181519 1.9450000524520874 -1.1918199062347412
      vertex -1.1217254400253296 1.9450000524520874 -1.1352089643478394
      vertex -0.91990059614181519 1.6950000524520874 -1.1918199062347412
    endloop
  endfacet
  facet normal 0.27007281878415229 0 0.96283989975176165
    outer loop
      vertex -1.3235502243041992 1.9450000524520874 -1.0785979032516479
      vertex -1.3235502243041992 1.6950000524520874 -1.0785979032516479
      vertex -1.1217254400253296 1.6950000524520874 -1.1352089643478394
    endloop
  endfacet
  facet normal 0.27007281878415229 -0 0.96283989975176165
    outer loop
      vertex -1.1217254400253296 1.6950000524520874 -1.1352089643478394
      vertex -1.1217254400253296 1.9450000524520874 -1.1352089643478394
      vertex -1.3235502243041992 1.9450000524520874 -1.0785979032516479
    endloop
  endfacet
  facet normal 0.2700722176143458 -2.6724180323604412e-17 0.96284006837733416
    outer loop
      vertex -0.91990059614181519 1.6950000524520874 -1.1918199062347412
      vertex -1.1217254400253296 1.9450000524520874 -1.1352089643478394
      vertex -1.1217254400253296 1.6950000524520874 -1.1352089643478394
    endloop
  endfacet
  facet normal 1 0 0
    outer loop
      vertex -1.3235502243041992 1.6950000524520874 -0.80527836084365845
      vertex -1.3235502243041992 1.6950000524520874 -1.0785979032516479
      vertex -1.3235502243041992 1.9450000524520874 -0.80527836084365845
    endloop
  endfacet
  facet normal 1 0 0
    outer loop
      vertex -1.3235502243041992 1.6950000524520874 -0.53195875883102417
      vertex -1.3235502243041992 1.6950000524520874 -0.80527836084365845
      vertex -1.3235502243041992 1.9450000524520874 -0.53195875883102417
    endloop
  endfacet
  facet normal 1 -0 -0
    outer loop
      vertex -1.3235502243041992 1.9450000524520874 -1.0785979032516479
      vertex -1.3235502243041992 1.9450000524520874 -0.80527836084365845
      vertex -1.3235502243041992 1.6950000524520874 -1.0785979032516479
    endloop
  endfacet
  facet normal 1 0 0
    outer loop
      vertex -1.3235502243041992 1.9450000524520874 -0.53195875883102417
      vertex -1.3235502243041992 1.6950000524520874 -0.80527836084365845
      vertex -1.3235502243041992 1.9450000524520874 -0.80527836084365845
    endloop
  endfacet
  facet normal 1 -0 -0
    outer loop
      vertex -1.3235502243041992 1.9450000524520874 -0.53195875883102417
      vertex -1.3235502243041992 1.9450000524520874 -0.25863918662071228
      vertex -1.3235502243041992 1.6950000524520874 -0.53195875883102417
    endloop
  endfacet
  facet normal 1 -0 0
    outer loop
      vertex -1.3235502243041992 1.9450000524520874 0.28800001740455627
      vertex -1.3235502243041992 1.6950000524520874 0.28800001740455627
      vertex -1.3235502243041992 1.6950000524520874 0.014680417254567146
    endloop
  endfacet
  facet normal 1 -0 0
    outer loop
      vertex -1.3235502243041992 1.9450000524520874 0.014680417254567146
      vertex -1.3235502243041992 1.6950000524520874 0.014680417254567146
      vertex -1.3235502243041992 1.6950000524520874 -0.25863918662071228
    endloop
  endfacet
  facet normal 1 0 -0
    outer loop
      vertex -1.3235502243041992 1.6950000524520874 -0.25863918662071228
      vertex -1.3235502243041992 1.9450000524520874 -0.25863918662071228
      vertex -1.3235502243041992 1.9450000524520874 0.014680417254567146
    endloop
  endfacet
  facet normal 1 0 -0
    outer loop
      vertex -1.3235502243041992 1.6950000524520874 0.014680417254567146
      vertex -1.3235502243041992 1.9450000524520874 0.014680417254567146
      vertex -1.3235502243041992 1.9450000524520874 0.28800001740455627
    endloop
  endfacet
  facet normal 1 0 -0
    outer loop
      vertex -1.3235502243041992 1.6950000524520874 -0.53195875883102417
      vertex -1.3235502243041992 1.9450000524520874 -0.25863918662071228
      vertex -1.3235502243041992 1.6950000524520874 -0.25863918662071228
    endloop
  endfacet
  facet normal -0 -0 -1
    outer loop
      vertex -1.0294278860092163 1.6950000524520874 0.28800001740455627
      vertex -1.3235502243041992 1.6950000524520874 0.28800001740455627
      vertex -1.0294278860092163 1.9450000524520874 0.28800001740455627
    endloop
  endfacet
  facet normal -0 0 -1
    outer loop
      vertex -0.14706112444400787 1.9450000524520874 0.28800001740455627
      vertex -0.14706112444400787 1.6950000524520874 0.28800001740455627
      vertex -0.44118338823318481 1.6950000524520874 0.28800001740455627
    endloop
  endfacet
  facet normal -0 0 -1
    outer loop
      vertex -0.73530566692352295 1.9450000524520874 0.28800001740455627
      vertex -0.73530566692352295 1.6950000524520874 0.28800001740455627
      vertex -1.0294278860092163 1.6950000524520874 0.28800001740455627
    endloop
  endfacet
  facet normal 0 0 -1
    outer loop
      vertex -0.73530566692352295 1.6950000524520874 0.28800001740455627
      vertex -0.44118338823318481 1.9450000524520874 0.28800001740455627
      vertex -0.44118338823318481 1.6950000524520874 0.28800001740455627
    endloop
  endfacet
  facet normal 0 -0 -1
    outer loop
      vertex -1.3235502243041992 1.6950000524520874 0.28800001740455627
      vertex -1.3235502243041992 1.9450000524520874 0.28800001740455627
      vertex -1.0294278860092163 1.9450000524520874 0.28800001740455627
    endloop
  endfacet
  facet normal 0 -0 -1
    outer loop
      vertex -0.73530566692352295 1.6950000524520874 0.28800001740455627
      vertex -0.73530566692352295 1.9450000524520874 0.28800001740455627
      vertex -0.44118338823318481 1.9450000524520874 0.28800001740455627
    endloop
  endfacet
  facet normal 0 -0 -1
    outer loop
      vertex -0.44118338823318481 1.6950000524520874 0.28800001740455627
      vertex -0.44118338823318481 1.9450000524520874 0.28800001740455627
      vertex -0.14706112444400787 1.9450000524520874 0.28800001740455627
    endloop
  endfacet
  facet normal 0 -0 -1
    outer loop
      vertex -0.73530566692352295 1.9450000524520874 0.28800001740455627
      vertex -1.0294278860092163 1.6950000524520874 0.28800001740455627
      vertex -1.0294278860092163 1.9450000524520874 0.28800001740455627
    endloop
  endfacet
  facet normal 0 0 -1
    outer loop
      vertex -0.14706112444400787 1.9450000524520874 0.28800001740455627
      vertex 0.14706112444400787 1.6950000524520874 0.28800001740455627
      vertex -0.14706112444400787 1.6950000524520874 0.28800001740455627
    endloop
  endfacet
  facet normal -0 0 -1
    outer loop
      vertex 0.44118338823318481 1.9450000524520874 0.28800001740455627
      vertex 0.44118338823318481 1.6950000524520874 0.28800001740455627
      vertex 0.14706112444400787 1.6950000524520874 0.28800001740455627
    endloop
  endfacet
  facet normal -0 -0 -1
    outer loop
      vertex 1.0294278860092163 1.6950000524520874 0.28800001740455627
      vertex 0.73530566692352295 1.6950000524520874 0.28800001740455627
      vertex 1.0294278860092163 1.9450000524520874 0.28800001740455627
    endloop
  endfacet
  facet normal -0 0 -1
    outer loop
      vertex 0.73530566692352295 1.9450000524520874 0.28800001740455627
      vertex 0.73530566692352295 1.6950000524520874 0.28800001740455627
      vertex 0.44118338823318481 1.6950000524520874 0.28800001740455627
    endloop
  endfacet
  facet normal 0 -0 -1
    outer loop
      vertex 1.0294278860092163 1.6950000524520874 0.28800001740455627
      vertex 1.0294278860092163 1.9450000524520874 0.28800001740455627
      vertex 1.3235502243041992 1.6950000524520874 0.28800001740455627
    endloop
  endfacet
  facet normal 0 -0 -1
    outer loop
      vertex 0.14706112444400787 1.6950000524520874 0.28800001740455627
      vertex 0.14706112444400787 1.9450000524520874 0.28800001740455627
      vertex 0.44118338823318481 1.9450000524520874 0.28800001740455627
    endloop
  endfacet
  facet normal 0 -0 -1
    outer loop
      vertex 0.73530566692352295 1.6950000524520874 0.28800001740455627
      vertex 0.73530566692352295 1.9450000524520874 0.28800001740455627
      vertex 1.0294278860092163 1.9450000524520874 0.28800001740455627
    endloop
  endfacet
  facet normal -0 -0 -1
    outer loop
      vertex 1.3235502243041992 1.6950000524520874 0.28800001740455627
      vertex 1.0294278860092163 1.9450000524520874 0.28800001740455627
      vertex 1.3235502243041992 1.9450000524520874 0.28800001740455627
    endloop
  endfacet
  facet normal 0 -0 -1
    outer loop
      vertex 0.73530566692352295 1.9450000524520874 0.28800001740455627
      vertex 0.44118338823318481 1.6950000524520874 0.28800001740455627
      vertex 0.44118338823318481 1.9450000524520874 0.28800001740455627
    endloop
  endfacet
  facet normal 0 0 -1
    outer loop
      vertex -0.14706112444400787 1.9450000524520874 0.28800001740455627
      vertex 0.14706112444400787 1.9450000524520874 0.28800001740455627
      vertex 0.14706112444400787 1.6950000524520874 0.28800001740455627
    endloop
  endfacet
  facet normal -1 -0 0
    outer loop
      vertex 1.3235502243041992 1.6950000524520874 0.014680417254567146
      vertex 1.3235502243041992 1.6950000524520874 0.28800001740455627
      vertex 1.3235502243041992 1.9450000524520874 0.014680417254567146
    endloop
  endfacet
  facet normal -1 -0 0
    outer loop
      vertex 1.3235502243041992 1.6950000524520874 -0.25863918662071228
      vertex 1.3235502243041992 1.6950000524520874 0.014680417254567146
      vertex 1.3235502243041992 1.9450000524520874 -0.25863918662071228
    endloop
  endfacet
  facet normal -1 -0 -0
    outer loop
      vertex 1.3235502243041992 1.6950000524520874 0.28800001740455627
      vertex 1.3235502243041992 1.9450000524520874 0.28800001740455627
      vertex 1.3235502243041992 1.9450000524520874 0.014680417254567146
    endloop
  endfacet
  facet normal -1 -0 -0
    outer loop
      vertex 1.3235502243041992 1.6950000524520874 0.014680417254567146
      vertex 1.3235502243041992 1.9450000524520874 0.014680417254567146
      vertex 1.3235502243041992 1.9450000524520874 -0.25863918662071228
    endloop
  endfacet
  facet normal -1 0 -0
    outer loop
      vertex 1.3235502243041992 1.9450000524520874 -0.25863918662071228
      vertex 1.3235502243041992 1.9450000524520874 -0.53195875883102417
      vertex 1.3235502243041992 1.6950000524520874 -0.25863918662071228
    endloop
  endfacet
  facet normal -1 0 0
    outer loop
      vertex 1.3235502243041992 1.9450000524520874 -1.0785979032516479
      vertex 1.3235502243041992 1.6950000524520874 -1.0785979032516479
      vertex 1.3235502243041992 1.6950000524520874 -0.80527836084365845
    endloop
  endfacet
  facet normal -1 0 0
    outer loop
      vertex 1.3235502243041992 1.9450000524520874 -0.80527836084365845
      vertex 1.3235502243041992 1.6950000524520874 -0.80527836084365845
      vertex 1.3235502243041992 1.6950000524520874 -0.53195875883102417
    endloop
  endfacet
  facet normal -1 0 -0
    outer loop
      vertex 1.3235502243041992 1.9450000524520874 -0.53195875883102417
      vertex 1.3235502243041992 1.9450000524520874 -0.80527836084365845
      vertex 1.3235502243041992 1.6950000524520874 -0.53195875883102417
    endloop
  endfacet
  facet normal -1 -0 0
    outer loop
      vertex 1.3235502243041992 1.9450000524520874 -1.0785979032516479
      vertex 1.3235502243041992 1.6950000524520874 -0.80527836084365845
      vertex 1.3235502243041992 1.9450000524520874 -0.80527836084365845
    endloop
  endfacet
  facet normal -1 -0 -0
    outer loop
      vertex 1.3235502243041992 1.6950000524520874 -0.25863918662071228
      vertex 1.3235502243041992 1.9450000524520874 -0.53195875883102417
      vertex 1.3235502243041992 1.6950000524520874 -0.53195875883102417
    endloop
  endfacet
  facet normal -0.27007281878415229 0 0.96283989975176165
    outer loop
      vertex 1.3235502243041992 1.9450000524520874 -1.0785979032516479
      vertex 1.1217254400253296 1.6950000524520874 -1.1352089643478394
      vertex 1.3235502243041992 1.6950000524520874 -1.0785979032516479
    endloop
  endfacet
  facet normal -0.27007281878415229 0 0.96283989975176165
    outer loop
      vertex 1.1217254400253296 1.6950000524520874 -1.1352089643478394
      vertex 1.3235502243041992 1.9450000524520874 -1.0785979032516479
      vertex 1.1217254400253296 1.9450000524520874 -1.1352089643478394
    endloop
  endfacet
  facet normal -0.2700722176143458 -2.6724180323604412e-17 0.96284006837733416
    outer loop
      vertex 1.1217254400253296 1.9450000524520874 -1.1352089643478394
      vertex 0.91990059614181519 1.6950000524520874 -1.1918199062347412
      vertex 1.1217254400253296 1.6950000524520874 -1.1352089643478394
    endloop
  endfacet
  facet normal -0.27007281878415229 0 0.96283989975176165
    outer loop
      vertex 0.91990059614181519 1.9450000524520874 -1.1918199062347412
      vertex 0.71807581186294556 1.6950000524520874 -1.2484309673309326
      vertex 0.91990059614181519 1.6950000524520874 -1.1918199062347412
    endloop
  endfacet
  facet normal -0.27007281878415229 0 0.96283989975176165
    outer loop
      vertex 0.71807581186294556 1.6950000524520874 -1.2484309673309326
      vertex 0.91990059614181519 1.9450000524520874 -1.1918199062347412
      vertex 0.71807581186294556 1.9450000524520874 -1.2484309673309326
    endloop
  endfacet
  facet normal -0.2700722176143458 0 0.96284006837733416
    outer loop
      vertex 1.1217254400253296 1.9450000524520874 -1.1352089643478394
      vertex 0.91990059614181519 1.9450000524520874 -1.1918199062347412
      vertex 0.91990059614181519 1.6950000524520874 -1.1918199062347412
    endloop
  endfacet
  facet normal -0 0 1
    outer loop
      vertex 0.4308454692363739 1.6950000524520874 -1.2484309673309326
      vertex 0.71807581186294556 1.6950000524520874 -1.2484309673309326
      vertex 0.71807581186294556 1.9450000524520874 -1.2484309673309326
    endloop
  endfacet
  facet normal -0 0 1
    outer loop
      vertex 0.14361515641212463 1.6950000524520874 -1.2484309673309326
      vertex 0.4308454692363739 1.6950000524520874 -1.2484309673309326
      vertex 0.4308454692363739 1.9450000524520874 -1.2484309673309326
    endloop
  endfacet
  facet normal -0 0 1
    outer loop
      vertex 0.4308454692363739 1.6950000524520874 -1.2484309673309326
      vertex 0.71807581186294556 1.9450000524520874 -1.2484309673309326
      vertex 0.4308454692363739 1.9450000524520874 -1.2484309673309326
    endloop
  endfacet
  facet normal -0 0 1
    outer loop
      vertex 0.14361515641212463 1.6950000524520874 -1.2484309673309326
      vertex 0.4308454692363739 1.9450000524520874 -1.2484309673309326
      vertex 0.14361515641212463 1.9450000524520874 -1.2484309673309326
    endloop
  endfacet
  facet normal 0 -0 1
    outer loop
      vertex 0.14361515641212463 1.9450000524520874 -1.2484309673309326
      vertex -0.14361515641212463 1.6950000524520874 -1.2484309673309326
      vertex 0.14361515641212463 1.6950000524520874 -1.2484309673309326
    endloop
  endfacet
  facet normal -0 0 1
    outer loop
      vertex -0.4308454692363739 1.6950000524520874 -1.2484309673309326
      vertex -0.14361515641212463 1.6950000524520874 -1.2484309673309326
      vertex -0.14361515641212463 1.9450000524520874 -1.2484309673309326
    endloop
  endfacet
  facet normal -0 0 1
    outer loop
      vertex -0.71807581186294556 1.6950000524520874 -1.2484309673309326
      vertex -0.4308454692363739 1.6950000524520874 -1.2484309673309326
      vertex -0.4308454692363739 1.9450000524520874 -1.2484309673309326
    endloop
  endfacet
  facet normal -0 0 1
    outer loop
      vertex -0.4308454692363739 1.6950000524520874 -1.2484309673309326
      vertex -0.14361515641212463 1.9450000524520874 -1.2484309673309326
      vertex -0.4308454692363739 1.9450000524520874 -1.2484309673309326
    endloop
  endfacet
  facet normal -0 0 1
    outer loop
      vertex -0.71807581186294556 1.6950000524520874 -1.2484309673309326
      vertex -0.4308454692363739 1.9450000524520874 -1.2484309673309326
      vertex -0.71807581186294556 1.9450000524520874 -1.2484309673309326
    endloop
  endfacet
  facet normal 0 -0 1
    outer loop
      vertex 0.14361515641212463 1.9450000524520874 -1.2484309673309326
      vertex -0.14361515641212463 1.9450000524520874 -1.2484309673309326
      vertex -0.14361515641212463 1.6950000524520874 -1.2484309673309326
    endloop
  endfacet
  facet normal 0 -1 0
    outer loop
      vertex 1.1644773483276367 1.6950000524520874 -1.1855329275131226
      vertex 1.3835501670837402 1.6950000524520874 -1.1240838766098022
      vertex 1.3235502243041992 1.6950000524520874 -1.0785979032516479
    endloop
  endfacet
  facet normal 0 -1 -0
    outer loop
      vertex 0.91990059614181519 1.6950000524520874 -1.1918199062347412
      vertex 1.1644773483276367 1.6950000524520874 -1.1855329275131226
      vertex 1.1217254400253296 1.6950000524520874 -1.1352089643478394
    endloop
  endfacet
  facet normal -0 -1 0
    outer loop
      vertex 1.1217254400253296 1.6950000524520874 -1.1352089643478394
      vertex 1.1644773483276367 1.6950000524520874 -1.1855329275131226
      vertex 1.3235502243041992 1.6950000524520874 -1.0785979032516479
    endloop
  endfacet
  facet normal -0 -1 0
    outer loop
      vertex 1.3235502243041992 1.6950000524520874 -0.80527836084365845
      vertex 1.3835501670837402 1.6950000524520874 -0.82966709136962891
      vertex 1.3835501670837402 1.6950000524520874 -0.53525030612945557
    endloop
  endfacet
  facet normal 0 -1 -0
    outer loop
      vertex 1.3835501670837402 1.6950000524520874 -0.82966709136962891
      vertex 1.3235502243041992 1.6950000524520874 -0.80527836084365845
      vertex 1.3235502243041992 1.6950000524520874 -1.0785979032516479
    endloop
  endfacet
  facet normal -0 -1 0
    outer loop
      vertex 1.3235502243041992 1.6950000524520874 -1.0785979032516479
      vertex 1.3835501670837402 1.6950000524520874 -1.1240838766098022
      vertex 1.3835501670837402 1.6950000524520874 -0.82966709136962891
    endloop
  endfacet
  facet normal 0 -1 -0
    outer loop
      vertex 1.3835501670837402 1.6950000524520874 -0.53525030612945557
      vertex 1.3235502243041992 1.6950000524520874 -0.53195875883102417
      vertex 1.3235502243041992 1.6950000524520874 -0.80527836084365845
    endloop
  endfacet
  facet normal -0 -1 0
    outer loop
      vertex 0.94540446996688843 1.6950000524520874 -1.2469818592071533
      vertex 0.71807581186294556 1.6950000524520874 -1.2484309673309326
      vertex 0.72633159160614014 1.6950000524520874 -1.3084309101104736
    endloop
  endfacet
  facet normal 0 -1 -0
    outer loop
      vertex 0.43579897284507751 1.6950000524520874 -1.3084309101104736
      vertex 0.72633159160614014 1.6950000524520874 -1.3084309101104736
      vertex 0.71807581186294556 1.6950000524520874 -1.2484309673309326
    endloop
  endfacet
  facet normal -0 -1 -0
    outer loop
      vertex 0.4308454692363739 1.6950000524520874 -1.2484309673309326
      vertex 0.43579897284507751 1.6950000524520874 -1.3084309101104736
      vertex 0.71807581186294556 1.6950000524520874 -1.2484309673309326
    endloop
  endfacet
  facet normal 0 -1 -0
    outer loop
      vertex 0.1452663242816925 1.6950000524520874 -1.3084309101104736
      vertex 0.43579897284507751 1.6950000524520874 -1.3084309101104736
      vertex 0.4308454692363739 1.6950000524520874 -1.2484309673309326
    endloop
  endfacet
  facet normal -0 -1 0
    outer loop
      vertex 1.1644773483276367 1.6950000524520874 -1.1855329275131226
      vertex 0.91990059614181519 1.6950000524520874 -1.1918199062347412
      vertex 0.94540446996688843 1.6950000524520874 -1.2469818592071533
    endloop
  endfacet
  facet normal 0 -1 0
    outer loop
      vertex 0.91990059614181519 1.6950000524520874 -1.1918199062347412
      vertex 0.71807581186294556 1.6950000524520874 -1.2484309673309326
      vertex 0.94540446996688843 1.6950000524520874 -1.2469818592071533
    endloop
  endfacet
  facet normal -0 -1 -0
    outer loop
      vertex 0.1452663242816925 1.6950000524520874 -1.3084309101104736
      vertex 0.4308454692363739 1.6950000524520874 -1.2484309673309326
      vertex 0.14361515641212463 1.6950000524520874 -1.2484309673309326
    endloop
  endfacet
  facet normal 0 -1 0
    outer loop
      vertex 0.14361515641212463 1.6950000524520874 -1.2484309673309326
      vertex -0.1452663242816925 1.6950000524520874 -1.3084309101104736
      vertex 0.1452663242816925 1.6950000524520874 -1.3084309101104736
    endloop
  endfacet
  facet normal -0 -1 0
    outer loop
      vertex 1.3835501670837402 1.6950000524520874 -0.24083355069160461
      vertex 1.3235502243041992 1.6950000524520874 -0.25863918662071228
      vertex 1.3235502243041992 1.6950000524520874 -0.53195875883102417
    endloop
  endfacet
  facet normal -0 -1 0
    outer loop
      vertex 1.3835501670837402 1.6950000524520874 -0.24083355069160461
      vertex 1.3235502243041992 1.6950000524520874 -0.53195875883102417
      vertex 1.3835501670837402 1.6950000524520874 -0.53525030612945557
    endloop
  endfacet
  facet normal 0 -1 -0
    outer loop
      vertex 1.3235502243041992 1.6950000524520874 -0.25863918662071228
      vertex 1.3835501670837402 1.6950000524520874 -0.24083355069160461
      vertex 1.3835501670837402 1.6950000524520874 0.05358322337269783
    endloop
  endfacet
  facet normal 0 -1 0
    outer loop
      vertex 1.3235502243041992 1.6950000524520874 -0.25863918662071228
      vertex 1.3835501670837402 1.6950000524520874 0.05358322337269783
      vertex 1.3235502243041992 1.6950000524520874 0.014680417254567146
    endloop
  endfacet
  facet normal -0 -1 0
    outer loop
      vertex 1.3235502243041992 1.6950000524520874 0.28800001740455627
      vertex 1.3835501670837402 1.6950000524520874 0.05358322337269783
      vertex 1.3835501670837402 1.6950000524520874 0.34799998998641968
    endloop
  endfacet
  facet normal 0 -1 -0
    outer loop
      vertex 1.3835501670837402 1.6950000524520874 0.05358322337269783
      vertex 1.3235502243041992 1.6950000524520874 0.28800001740455627
      vertex 1.3235502243041992 1.6950000524520874 0.014680417254567146
    endloop
  endfacet
  facet normal 0 -1 0
    outer loop
      vertex 1.1068401336669922 1.6950000524520874 0.34799998998641968
      vertex 1.0294278860092163 1.6950000524520874 0.28800001740455627
      vertex 1.3235502243041992 1.6950000524520874 0.28800001740455627
    endloop
  endfacet
  facet normal -0 -1 -0
    outer loop
      vertex 1.1068401336669922 1.6950000524520874 0.34799998998641968
      vertex 1.3235502243041992 1.6950000524520874 0.28800001740455627
      vertex 1.3835501670837402 1.6950000524520874 0.34799998998641968
    endloop
  endfacet
  facet normal -0 -1 -0
    outer loop
      vertex 1.0294278860092163 1.6950000524520874 0.28800001740455627
      vertex 1.1068401336669922 1.6950000524520874 0.34799998998641968
      vertex 0.83013010025024414 1.6950000524520874 0.34799998998641968
    endloop
  endfacet
  facet normal 0 -1 0
    outer loop
      vertex 1.0294278860092163 1.6950000524520874 0.28800001740455627
      vertex 0.83013010025024414 1.6950000524520874 0.34799998998641968
      vertex 0.73530566692352295 1.6950000524520874 0.28800001740455627
    endloop
  endfacet
  facet normal 0 -1 0
    outer loop
      vertex 0.27671003341674805 1.6950000524520874 0.34799998998641968
      vertex 0.14706112444400787 1.6950000524520874 0.28800001740455627
      vertex 0.44118338823318481 1.6950000524520874 0.28800001740455627
    endloop
  endfacet
  facet normal 0 -1 0
    outer loop
      vertex 0.55342006683349609 1.6950000524520874 0.34799998998641968
      vertex 0.44118338823318481 1.6950000524520874 0.28800001740455627
      vertex 0.73530566692352295 1.6950000524520874 0.28800001740455627
    endloop
  endfacet
  facet normal -0 -1 -0
    outer loop
      vertex 0.44118338823318481 1.6950000524520874 0.28800001740455627
      vertex 0.55342006683349609 1.6950000524520874 0.34799998998641968
      vertex 0.27671003341674805 1.6950000524520874 0.34799998998641968
    endloop
  endfacet
  facet normal -0 -1 -0
    outer loop
      vertex 0.55342006683349609 1.6950000524520874 0.34799998998641968
      vertex 0.73530566692352295 1.6950000524520874 0.28800001740455627
      vertex 0.83013010025024414 1.6950000524520874 0.34799998998641968
    endloop
  endfacet
  facet normal -0 -1 0
    outer loop
      vertex 0.27671003341674805 1.6950000524520874 0.34799998998641968
      vertex 4.4408920985006262e-16 1.6950000524520874 0.34799998998641968
      vertex 0.14706112444400787 1.6950000524520874 0.28800001740455627
    endloop
  endfacet
  facet normal 0 -1 0
    outer loop
      vertex -0.4308454692363739 1.6950000524520874 -1.2484309673309326
      vertex -0.43579897284507751 1.6950000524520874 -1.3084309101104736
      vertex -0.1452663242816925 1.6950000524520874 -1.3084309101104736
    endloop
  endfacet
  facet normal 0 -1 0
    outer loop
      vertex -0.71807581186294556 1.6950000524520874 -1.2484309673309326
      vertex -0.72633159160614014 1.6950000524520874 -1.3084309101104736
      vertex -0.43579897284507751 1.6950000524520874 -1.3084309101104736
    endloop
  endfacet
  facet normal -0 -1 -0
    outer loop
      vertex -0.4308454692363739 1.6950000524520874 -1.2484309673309326
      vertex -0.1452663242816925 1.6950000524520874 -1.3084309101104736
      vertex -0.14361515641212463 1.6950000524520874 -1.2484309673309326
    endloop
  endfacet
  facet normal 0 -1 0
    outer loop
      vertex -0.71807581186294556 1.6950000524520874 -1.2484309673309326
      vertex -0.91990059614181519 1.6950000524520874 -1.1918199062347412
      vertex -0.94540446996688843 1.6950000524520874 -1.2469818592071533
    endloop
  endfacet
  facet normal -0 -1 0
    outer loop
      vertex -0.4308454692363739 1.6950000524520874 -1.2484309673309326
      vertex -0.71807581186294556 1.6950000524520874 -1.2484309673309326
      vertex -0.43579897284507751 1.6950000524520874 -1.3084309101104736
    endloop
  endfacet
  facet normal -0 -1 -0
    outer loop
      vertex -0.94540446996688843 1.6950000524520874 -1.2469818592071533
      vertex -0.72633159160614014 1.6950000524520874 -1.3084309101104736
      vertex -0.71807581186294556 1.6950000524520874 -1.2484309673309326
    endloop
  endfacet
  facet normal 0 -1 0
    outer loop
      vertex -1.1217254400253296 1.6950000524520874 -1.1352089643478394
      vertex -1.1644773483276367 1.6950000524520874 -1.1855329275131226
      vertex -0.91990059614181519 1.6950000524520874 -1.1918199062347412
    endloop
  endfacet
  facet normal -0 -1 -0
    outer loop
      vertex -1.3235502243041992 1.6950000524520874 -1.0785979032516479
      vertex -1.1644773483276367 1.6950000524520874 -1.1855329275131226
      vertex -1.1217254400253296 1.6950000524520874 -1.1352089643478394
    endloop
  endfacet
  facet normal 0 -1 -0
    outer loop
      vertex -1.3835501670837402 1.6950000524520874 -1.1240838766098022
      vertex -1.1644773483276367 1.6950000524520874 -1.1855329275131226
      vertex -1.3235502243041992 1.6950000524520874 -1.0785979032516479
    endloop
  endfacet
  facet normal -0 -1 0
    outer loop
      vertex -1.3835501670837402 1.6950000524520874 -0.82966709136962891
      vertex -1.3235502243041992 1.6950000524520874 -1.0785979032516479
      vertex -1.3235502243041992 1.6950000524520874 -0.80527836084365845
    endloop
  endfacet
  facet normal 0 -1 -0
    outer loop
      vertex -1.3235502243041992 1.6950000524520874 -0.80527836084365845
      vertex -1.3835501670837402 1.6950000524520874 -0.53525030612945557
      vertex -1.3835501670837402 1.6950000524520874 -0.82966709136962891
    endloop
  endfacet
  facet normal -0 -1 -0
    outer loop
      vertex -1.3835501670837402 1.6950000524520874 -0.82966709136962891
      vertex -1.3835501670837402 1.6950000524520874 -1.1240838766098022
      vertex -1.3235502243041992 1.6950000524520874 -1.0785979032516479
    endloop
  endfacet
  facet normal 0 -1 0
    outer loop
      vertex -0.91990059614181519 1.6950000524520874 -1.1918199062347412
      vertex -1.1644773483276367 1.6950000524520874 -1.1855329275131226
      vertex -0.94540446996688843 1.6950000524520874 -1.2469818592071533
    endloop
  endfacet
  facet normal -0 -1 0
    outer loop
      vertex -1.3835501670837402 1.6950000524520874 -0.53525030612945557
      vertex -1.3235502243041992 1.6950000524520874 -0.80527836084365845
      vertex -1.3235502243041992 1.6950000524520874 -0.53195875883102417
    endloop
  endfacet
  facet normal 0 -1 -0
    outer loop
      vertex -0.44118338823318481 1.6950000524520874 0.28800001740455627
      vertex -0.14706112444400787 1.6950000524520874 0.28800001740455627
      vertex -0.27671003341674805 1.6950000524520874 0.34799998998641968
    endloop
  endfacet
  facet normal 0 -1 0
    outer loop
      vertex -0.44118338823318481 1.6950000524520874 0.28800001740455627
      vertex -0.55342006683349609 1.6950000524520874 0.34799998998641968
      vertex -0.83013010025024414 1.6950000524520874 0.34799998998641968
    endloop
  endfacet
  facet normal 0 -1 0
    outer loop
      vertex -0.44118338823318481 1.6950000524520874 0.28800001740455627
      vertex -0.83013010025024414 1.6950000524520874 0.34799998998641968
      vertex -0.73530566692352295 1.6950000524520874 0.28800001740455627
    endloop
  endfacet
  facet normal 0 -1 0
    outer loop
      vertex -0.73530566692352295 1.6950000524520874 0.28800001740455627
      vertex -0.83013010025024414 1.6950000524520874 0.34799998998641968
      vertex -1.1068401336669922 1.6950000524520874 0.34799998998641968
    endloop
  endfacet
  facet normal 0 -1 0
    outer loop
      vertex -0.73530566692352295 1.6950000524520874 0.28800001740455627
      vertex -1.1068401336669922 1.6950000524520874 0.34799998998641968
      vertex -1.0294278860092163 1.6950000524520874 0.28800001740455627
    endloop
  endfacet
  facet normal -0 -1 -0
    outer loop
      vertex -0.14706112444400787 1.6950000524520874 0.28800001740455627
      vertex 4.4408920985006262e-16 1.6950000524520874 0.34799998998641968
      vertex -0.27671003341674805 1.6950000524520874 0.34799998998641968
    endloop
  endfacet
  facet normal -0 -1 -0
    outer loop
      vertex -0.55342006683349609 1.6950000524520874 0.34799998998641968
      vertex -0.44118338823318481 1.6950000524520874 0.28800001740455627
      vertex -0.27671003341674805 1.6950000524520874 0.34799998998641968
    endloop
  endfacet
  facet normal 0 -1 0
    outer loop
      vertex 4.4408920985006262e-16 1.6950000524520874 0.34799998998641968
      vertex -0.14706112444400787 1.6950000524520874 0.28800001740455627
      vertex 0.14706112444400787 1.6950000524520874 0.28800001740455627
    endloop
  endfacet
  facet normal 0 -1 -0
    outer loop
      vertex -1.3235502243041992 1.6950000524520874 -0.25863918662071228
      vertex -1.3835501670837402 1.6950000524520874 -0.24083355069160461
      vertex -1.3835501670837402 1.6950000524520874 -0.53525030612945557
    endloop
  endfacet
  facet normal -0 -1 0
    outer loop
      vertex -1.3235502243041992 1.6950000524520874 -0.25863918662071228
      vertex -1.3835501670837402 1.6950000524520874 -0.53525030612945557
      vertex -1.3235502243041992 1.6950000524520874 -0.53195875883102417
    endloop
  endfacet
  facet normal -0 -1 -0
    outer loop
      vertex -1.3835501670837402 1.6950000524520874 0.05358322337269783
      vertex -1.3835501670837402 1.6950000524520874 -0.24083355069160461
      vertex -1.3235502243041992 1.6950000524520874 0.014680417254567146
    endloop
  endfacet
  facet normal 0 -1 0
    outer loop
      vertex -1.3235502243041992 1.6950000524520874 -0.25863918662071228
      vertex -1.3235502243041992 1.6950000524520874 0.014680417254567146
      vertex -1.3835501670837402 1.6950000524520874 -0.24083355069160461
    endloop
  endfacet
  facet normal -0 -1 0
    outer loop
      vertex -1.3235502243041992 1.6950000524520874 0.28800001740455627
      vertex -1.3835501670837402 1.6950000524520874 0.05358322337269783
      vertex -1.3235502243041992 1.6950000524520874 0.014680417254567146
    endloop
  endfacet
  facet normal 0 -1 0
    outer loop
      vertex -1.3835501670837402 1.6950000524520874 0.34799998998641968
      vertex -1.3235502243041992 1.6950000524520874 0.28800001740455627
      vertex -1.0294278860092163 1.6950000524520874 0.28800001740455627
    endloop
  endfacet
  facet normal 0 -1 -0
    outer loop
      vertex -1.3835501670837402 1.6950000524520874 0.34799998998641968
      vertex -1.0294278860092163 1.6950000524520874 0.28800001740455627
      vertex -1.1068401336669922 1.6950000524520874 0.34799998998641968
    endloop
  endfacet
  facet normal 0 -1 -0
    outer loop
      vertex -1.3235502243041992 1.6950000524520874 0.28800001740455627
      vertex -1.3835501670837402 1.6950000524520874 0.34799998998641968
      vertex -1.3835501670837402 1.6950000524520874 0.05358322337269783
    endloop
  endfacet
  facet normal 0 -1 -0
    outer loop
      vertex -0.1452663242816925 1.6950000524520874 -1.3084309101104736
      vertex 0.14361515641212463 1.6950000524520874 -1.2484309673309326
      vertex -0.14361515641212463 1.6950000524520874 -1.2484309673309326
    endloop
  endfacet
  facet normal 0 1 0
    outer loop
      vertex 1.1644773483276367 1.9450000524520874 -1.1855329275131226
      vertex 1.3235502243041992 1.9450000524520874 -1.0785979032516479
      vertex 1.3835501670837402 1.9450000524520874 -1.1240838766098022
    endloop
  endfacet
  facet normal 0 1 -0
    outer loop
      vertex 0.91990059614181519 1.9450000524520874 -1.1918199062347412
      vertex 1.1217254400253296 1.9450000524520874 -1.1352089643478394
      vertex 1.1644773483276367 1.9450000524520874 -1.1855329275131226
    endloop
  endfacet
  facet normal -0 1 0
    outer loop
      vertex 1.1217254400253296 1.9450000524520874 -1.1352089643478394
      vertex 1.3235502243041992 1.9450000524520874 -1.0785979032516479
      vertex 1.1644773483276367 1.9450000524520874 -1.1855329275131226
    endloop
  endfacet
  facet normal 0 1 0
    outer loop
      vertex 1.3235502243041992 1.9450000524520874 -0.80527836084365845
      vertex 1.3835501670837402 1.9450000524520874 -0.53525030612945557
      vertex 1.3835501670837402 1.9450000524520874 -0.82966709136962891
    endloop
  endfacet
  facet normal -0 1 -0
    outer loop
      vertex 1.3835501670837402 1.9450000524520874 -0.82966709136962891
      vertex 1.3235502243041992 1.9450000524520874 -1.0785979032516479
      vertex 1.3235502243041992 1.9450000524520874 -0.80527836084365845
    endloop
  endfacet
  facet normal 0 1 0
    outer loop
      vertex 1.3235502243041992 1.9450000524520874 -1.0785979032516479
      vertex 1.3835501670837402 1.9450000524520874 -0.82966709136962891
      vertex 1.3835501670837402 1.9450000524520874 -1.1240838766098022
    endloop
  endfacet
  facet normal -0 1 -0
    outer loop
      vertex 1.3835501670837402 1.9450000524520874 -0.53525030612945557
      vertex 1.3235502243041992 1.9450000524520874 -0.80527836084365845
      vertex 1.3235502243041992 1.9450000524520874 -0.53195875883102417
    endloop
  endfacet
  facet normal -0 1 0
    outer loop
      vertex 0.94540446996688843 1.9450000524520874 -1.2469818592071533
      vertex 0.72633159160614014 1.9450000524520874 -1.3084309101104736
      vertex 0.71807581186294556 1.9450000524520874 -1.2484309673309326
    endloop
  endfacet
  facet normal 0 1 -0
    outer loop
      vertex 0.43579897284507751 1.9450000524520874 -1.3084309101104736
      vertex 0.71807581186294556 1.9450000524520874 -1.2484309673309326
      vertex 0.72633159160614014 1.9450000524520874 -1.3084309101104736
    endloop
  endfacet
  facet normal -0 1 -0
    outer loop
      vertex 0.4308454692363739 1.9450000524520874 -1.2484309673309326
      vertex 0.71807581186294556 1.9450000524520874 -1.2484309673309326
      vertex 0.43579897284507751 1.9450000524520874 -1.3084309101104736
    endloop
  endfacet
  facet normal 0 1 -0
    outer loop
      vertex 0.1452663242816925 1.9450000524520874 -1.3084309101104736
      vertex 0.4308454692363739 1.9450000524520874 -1.2484309673309326
      vertex 0.43579897284507751 1.9450000524520874 -1.3084309101104736
    endloop
  endfacet
  facet normal -0 1 0
    outer loop
      vertex 1.1644773483276367 1.9450000524520874 -1.1855329275131226
      vertex 0.94540446996688843 1.9450000524520874 -1.2469818592071533
      vertex 0.91990059614181519 1.9450000524520874 -1.1918199062347412
    endloop
  endfacet
  facet normal 0 1 -0
    outer loop
      vertex 0.91990059614181519 1.9450000524520874 -1.1918199062347412
      vertex 0.94540446996688843 1.9450000524520874 -1.2469818592071533
      vertex 0.71807581186294556 1.9450000524520874 -1.2484309673309326
    endloop
  endfacet
  facet normal -0 1 0
    outer loop
      vertex 0.1452663242816925 1.9450000524520874 -1.3084309101104736
      vertex 0.14361515641212463 1.9450000524520874 -1.2484309673309326
      vertex 0.4308454692363739 1.9450000524520874 -1.2484309673309326
    endloop
  endfacet
  facet normal 0 1 -0
    outer loop
      vertex 0.14361515641212463 1.9450000524520874 -1.2484309673309326
      vertex 0.1452663242816925 1.9450000524520874 -1.3084309101104736
      vertex -0.1452663242816925 1.9450000524520874 -1.3084309101104736
    endloop
  endfacet
  facet normal -0 1 0
    outer loop
      vertex 1.3835501670837402 1.9450000524520874 -0.24083355069160461
      vertex 1.3835501670837402 1.9450000524520874 -0.53525030612945557
      vertex 1.3235502243041992 1.9450000524520874 -0.53195875883102417
    endloop
  endfacet
  facet normal -0 1 0
    outer loop
      vertex 1.3835501670837402 1.9450000524520874 -0.24083355069160461
      vertex 1.3235502243041992 1.9450000524520874 -0.53195875883102417
      vertex 1.3235502243041992 1.9450000524520874 -0.25863918662071228
    endloop
  endfacet
  facet normal -0 1 -0
    outer loop
      vertex 1.3235502243041992 1.9450000524520874 0.014680417254567146
      vertex 1.3835501670837402 1.9450000524520874 -0.24083355069160461
      vertex 1.3235502243041992 1.9450000524520874 -0.25863918662071228
    endloop
  endfacet
  facet normal -0 1 0
    outer loop
      vertex 1.3835501670837402 1.9450000524520874 0.34799998998641968
      vertex 1.3835501670837402 1.9450000524520874 0.05358322337269783
      vertex 1.3235502243041992 1.9450000524520874 0.014680417254567146
    endloop
  endfacet
  facet normal 0 1 0
    outer loop
      vertex 1.3835501670837402 1.9450000524520874 0.34799998998641968
      vertex 1.3235502243041992 1.9450000524520874 0.014680417254567146
      vertex 1.3235502243041992 1.9450000524520874 0.28800001740455627
    endloop
  endfacet
  facet normal 0 1 0
    outer loop
      vertex 1.3235502243041992 1.9450000524520874 0.014680417254567146
      vertex 1.3835501670837402 1.9450000524520874 0.05358322337269783
      vertex 1.3835501670837402 1.9450000524520874 -0.24083355069160461
    endloop
  endfacet
  facet normal -0 1 -0
    outer loop
      vertex 1.1068401336669922 1.9450000524520874 0.34799998998641968
      vertex 1.3835501670837402 1.9450000524520874 0.34799998998641968
      vertex 1.3235502243041992 1.9450000524520874 0.28800001740455627
    endloop
  endfacet
  facet normal 0 1 -0
    outer loop
      vertex 1.1068401336669922 1.9450000524520874 0.34799998998641968
      vertex 1.3235502243041992 1.9450000524520874 0.28800001740455627
      vertex 1.0294278860092163 1.9450000524520874 0.28800001740455627
    endloop
  endfacet
  facet normal 0 1 -0
    outer loop
      vertex 0.73530566692352295 1.9450000524520874 0.28800001740455627
      vertex 0.83013010025024414 1.9450000524520874 0.34799998998641968
      vertex 1.0294278860092163 1.9450000524520874 0.28800001740455627
    endloop
  endfacet
  facet normal 0 1 -0
    outer loop
      vertex 0.27671003341674805 1.9450000524520874 0.34799998998641968
      vertex 0.44118338823318481 1.9450000524520874 0.28800001740455627
      vertex 0.14706112444400787 1.9450000524520874 0.28800001740455627
    endloop
  endfacet
  facet normal 0 1 -0
    outer loop
      vertex 0.44118338823318481 1.9450000524520874 0.28800001740455627
      vertex 0.55342006683349609 1.9450000524520874 0.34799998998641968
      vertex 0.73530566692352295 1.9450000524520874 0.28800001740455627
    endloop
  endfacet
  facet normal -0 1 0
    outer loop
      vertex 1.0294278860092163 1.9450000524520874 0.28800001740455627
      vertex 0.83013010025024414 1.9450000524520874 0.34799998998641968
      vertex 1.1068401336669922 1.9450000524520874 0.34799998998641968
    endloop
  endfacet
  facet normal -0 1 0
    outer loop
      vertex 0.44118338823318481 1.9450000524520874 0.28800001740455627
      vertex 0.27671003341674805 1.9450000524520874 0.34799998998641968
      vertex 0.55342006683349609 1.9450000524520874 0.34799998998641968
    endloop
  endfacet
  facet normal -0 1 -0
    outer loop
      vertex 0.55342006683349609 1.9450000524520874 0.34799998998641968
      vertex 0.83013010025024414 1.9450000524520874 0.34799998998641968
      vertex 0.73530566692352295 1.9450000524520874 0.28800001740455627
    endloop
  endfacet
  facet normal -0 1 0
    outer loop
      vertex 0.27671003341674805 1.9450000524520874 0.34799998998641968
      vertex 0.14706112444400787 1.9450000524520874 0.28800001740455627
      vertex 4.4408920985006262e-16 1.9450000524520874 0.34799998998641968
    endloop
  endfacet
  facet normal 0 1 -0
    outer loop
      vertex -0.4308454692363739 1.9450000524520874 -1.2484309673309326
      vertex -0.1452663242816925 1.9450000524520874 -1.3084309101104736
      vertex -0.43579897284507751 1.9450000524520874 -1.3084309101104736
    endloop
  endfacet
  facet normal 0 1 -0
    outer loop
      vertex -0.71807581186294556 1.9450000524520874 -1.2484309673309326
      vertex -0.43579897284507751 1.9450000524520874 -1.3084309101104736
      vertex -0.72633159160614014 1.9450000524520874 -1.3084309101104736
    endloop
  endfacet
  facet normal -0 1 -0
    outer loop
      vertex -0.4308454692363739 1.9450000524520874 -1.2484309673309326
      vertex -0.14361515641212463 1.9450000524520874 -1.2484309673309326
      vertex -0.1452663242816925 1.9450000524520874 -1.3084309101104736
    endloop
  endfacet
  facet normal 0 1 0
    outer loop
      vertex -0.71807581186294556 1.9450000524520874 -1.2484309673309326
      vertex -0.94540446996688843 1.9450000524520874 -1.2469818592071533
      vertex -0.91990059614181519 1.9450000524520874 -1.1918199062347412
    endloop
  endfacet
  facet normal -0 1 0
    outer loop
      vertex -0.4308454692363739 1.9450000524520874 -1.2484309673309326
      vertex -0.43579897284507751 1.9450000524520874 -1.3084309101104736
      vertex -0.71807581186294556 1.9450000524520874 -1.2484309673309326
    endloop
  endfacet
  facet normal -0 1 -0
    outer loop
      vertex -0.94540446996688843 1.9450000524520874 -1.2469818592071533
      vertex -0.71807581186294556 1.9450000524520874 -1.2484309673309326
      vertex -0.72633159160614014 1.9450000524520874 -1.3084309101104736
    endloop
  endfacet
  facet normal 0 1 -0
    outer loop
      vertex -1.1217254400253296 1.9450000524520874 -1.1352089643478394
      vertex -0.91990059614181519 1.9450000524520874 -1.1918199062347412
      vertex -1.1644773483276367 1.9450000524520874 -1.1855329275131226
    endloop
  endfacet
  facet normal -0 1 -0
    outer loop
      vertex -1.3235502243041992 1.9450000524520874 -1.0785979032516479
      vertex -1.1217254400253296 1.9450000524520874 -1.1352089643478394
      vertex -1.1644773483276367 1.9450000524520874 -1.1855329275131226
    endloop
  endfacet
  facet normal 0 1 -0
    outer loop
      vertex -1.3835501670837402 1.9450000524520874 -1.1240838766098022
      vertex -1.3235502243041992 1.9450000524520874 -1.0785979032516479
      vertex -1.1644773483276367 1.9450000524520874 -1.1855329275131226
    endloop
  endfacet
  facet normal -0 1 0
    outer loop
      vertex -1.3235502243041992 1.9450000524520874 -0.80527836084365845
      vertex -1.3235502243041992 1.9450000524520874 -1.0785979032516479
      vertex -1.3835501670837402 1.9450000524520874 -1.1240838766098022
    endloop
  endfacet
  facet normal -0 1 0
    outer loop
      vertex -1.3235502243041992 1.9450000524520874 -0.80527836084365845
      vertex -1.3835501670837402 1.9450000524520874 -1.1240838766098022
      vertex -1.3835501670837402 1.9450000524520874 -0.82966709136962891
    endloop
  endfacet
  facet normal -0 1 -0
    outer loop
      vertex -1.3235502243041992 1.9450000524520874 -0.80527836084365845
      vertex -1.3835501670837402 1.9450000524520874 -0.82966709136962891
      vertex -1.3835501670837402 1.9450000524520874 -0.53525030612945557
    endloop
  endfacet
  facet normal 0 1 0
    outer loop
      vertex -0.91990059614181519 1.9450000524520874 -1.1918199062347412
      vertex -0.94540446996688843 1.9450000524520874 -1.2469818592071533
      vertex -1.1644773483276367 1.9450000524520874 -1.1855329275131226
    endloop
  endfacet
  facet normal 0 1 0
    outer loop
      vertex -1.3835501670837402 1.9450000524520874 -0.53525030612945557
      vertex -1.3235502243041992 1.9450000524520874 -0.53195875883102417
      vertex -1.3235502243041992 1.9450000524520874 -0.80527836084365845
    endloop
  endfacet
  facet normal 0 1 -0
    outer loop
      vertex -0.44118338823318481 1.9450000524520874 0.28800001740455627
      vertex -0.27671003341674805 1.9450000524520874 0.34799998998641968
      vertex -0.14706112444400787 1.9450000524520874 0.28800001740455627
    endloop
  endfacet
  facet normal 0 1 0
    outer loop
      vertex -0.44118338823318481 1.9450000524520874 0.28800001740455627
      vertex -0.73530566692352295 1.9450000524520874 0.28800001740455627
      vertex -0.83013010025024414 1.9450000524520874 0.34799998998641968
    endloop
  endfacet
  facet normal 0 1 0
    outer loop
      vertex -0.44118338823318481 1.9450000524520874 0.28800001740455627
      vertex -0.83013010025024414 1.9450000524520874 0.34799998998641968
      vertex -0.55342006683349609 1.9450000524520874 0.34799998998641968
    endloop
  endfacet
  facet normal 0 1 0
    outer loop
      vertex -0.73530566692352295 1.9450000524520874 0.28800001740455627
      vertex -1.0294278860092163 1.9450000524520874 0.28800001740455627
      vertex -1.1068401336669922 1.9450000524520874 0.34799998998641968
    endloop
  endfacet
  facet normal 0 1 0
    outer loop
      vertex -0.73530566692352295 1.9450000524520874 0.28800001740455627
      vertex -1.1068401336669922 1.9450000524520874 0.34799998998641968
      vertex -0.83013010025024414 1.9450000524520874 0.34799998998641968
    endloop
  endfacet
  facet normal -0 1 0
    outer loop
      vertex -0.14706112444400787 1.9450000524520874 0.28800001740455627
      vertex -0.27671003341674805 1.9450000524520874 0.34799998998641968
      vertex 4.4408920985006262e-16 1.9450000524520874 0.34799998998641968
    endloop
  endfacet
  facet normal -0 1 -0
    outer loop
      vertex -0.55342006683349609 1.9450000524520874 0.34799998998641968
      vertex -0.27671003341674805 1.9450000524520874 0.34799998998641968
      vertex -0.44118338823318481 1.9450000524520874 0.28800001740455627
    endloop
  endfacet
  facet normal 0 1 -0
    outer loop
      vertex 4.4408920985006262e-16 1.9450000524520874 0.34799998998641968
      vertex 0.14706112444400787 1.9450000524520874 0.28800001740455627
      vertex -0.14706112444400787 1.9450000524520874 0.28800001740455627
    endloop
  endfacet
  facet normal -0 1 0
    outer loop
      vertex -1.3235502243041992 1.9450000524520874 -0.25863918662071228
      vertex -1.3235502243041992 1.9450000524520874 -0.53195875883102417
      vertex -1.3835501670837402 1.9450000524520874 -0.53525030612945557
    endloop
  endfacet
  facet normal -0 1 -0
    outer loop
      vertex -1.3835501670837402 1.9450000524520874 0.05358322337269783
      vertex -1.3235502243041992 1.9450000524520874 0.014680417254567146
      vertex -1.3835501670837402 1.9450000524520874 -0.24083355069160461
    endloop
  endfacet
  facet normal 0 1 0
    outer loop
      vertex -1.3235502243041992 1.9450000524520874 -0.25863918662071228
      vertex -1.3835501670837402 1.9450000524520874 -0.24083355069160461
      vertex -1.3235502243041992 1.9450000524520874 0.014680417254567146
    endloop
  endfacet
  facet normal -0 1 -0
    outer loop
      vertex -1.3235502243041992 1.9450000524520874 -0.25863918662071228
      vertex -1.3835501670837402 1.9450000524520874 -0.53525030612945557
      vertex -1.3835501670837402 1.9450000524520874 -0.24083355069160461
    endloop
  endfacet
  facet normal -0 1 0
    outer loop
      vertex -1.3235502243041992 1.9450000524520874 0.28800001740455627
      vertex -1.3235502243041992 1.9450000524520874 0.014680417254567146
      vertex -1.3835501670837402 1.9450000524520874 0.05358322337269783
    endloop
  endfacet
  facet normal 0 1 -0
    outer loop
      vertex -1.3835501670837402 1.9450000524520874 0.34799998998641968
      vertex -1.1068401336669922 1.9450000524520874 0.34799998998641968
      vertex -1.0294278860092163 1.9450000524520874 0.28800001740455627
    endloop
  endfacet
  facet normal 0 1 0
    outer loop
      vertex -1.3835501670837402 1.9450000524520874 0.34799998998641968
      vertex -1.0294278860092163 1.9450000524520874 0.28800001740455627
      vertex -1.3235502243041992 1.9450000524520874 0.28800001740455627
    endloop
  endfacet
  facet normal -0 1 -0
    outer loop
      vertex -1.3235502243041992 1.9450000524520874 0.28800001740455627
      vertex -1.3835501670837402 1.9450000524520874 0.05358322337269783
      vertex -1.3835501670837402 1.9450000524520874 0.34799998998641968
    endloop
  endfacet
  facet normal 0 1 -0
    outer loop
      vertex -0.1452663242816925 1.9450000524520874 -1.3084309101104736
      vertex -0.14361515641212463 1.9450000524520874 -1.2484309673309326
      vertex 0.14361515641212463 1.9450000524520874 -1.2484309673309326
    endloop
  endfacet
  facet normal -0.27007268435660675 0 -0.96283993745815122
    outer loop
      vertex -0.94540446996688843 1.6950000524520874 -1.2469818592071533
      vertex -0.94540446996688843 1.9450000524520874 -1.2469818592071533
      vertex -0.72633159160614014 1.9450000524520874 -1.3084309101104736
    endloop
  endfacet
  facet normal -0.27007268435660675 0 -0.96283993745815122
    outer loop
      vertex -0.94540446996688843 1.6950000524520874 -1.2469818592071533
      vertex -0.72633159160614014 1.9450000524520874 -1.3084309101104736
      vertex -0.72633159160614014 1.6950000524520874 -1.3084309101104736
    endloop
  endfacet
  facet normal -0.27007219863897874 -0 -0.96284007369983726
    outer loop
      vertex -1.1644773483276367 1.9450000524520874 -1.1855329275131226
      vertex -0.94540446996688843 1.9450000524520874 -1.2469818592071533
      vertex -0.94540446996688843 1.6950000524520874 -1.2469818592071533
    endloop
  endfacet
  facet normal -0.27007219863897874 0 -0.96284007369983726
    outer loop
      vertex -1.1644773483276367 1.9450000524520874 -1.1855329275131226
      vertex -0.94540446996688843 1.6950000524520874 -1.2469818592071533
      vertex -1.1644773483276367 1.6950000524520874 -1.1855329275131226
    endloop
  endfacet
  facet normal -0.27007275247751789 0 -0.9628399183505103
    outer loop
      vertex -1.1644773483276367 1.6950000524520874 -1.1855329275131226
      vertex -1.3835501670837402 1.6950000524520874 -1.1240838766098022
      vertex -1.3835501670837402 1.9450000524520874 -1.1240838766098022
    endloop
  endfacet
  facet normal -0.27007275247751789 -0 -0.9628399183505103
    outer loop
      vertex -1.1644773483276367 1.6950000524520874 -1.1855329275131226
      vertex -1.3835501670837402 1.9450000524520874 -1.1240838766098022
      vertex -1.1644773483276367 1.9450000524520874 -1.1855329275131226
    endloop
  endfacet
  facet normal -1 -0 -0
    outer loop
      vertex -1.3835501670837402 1.6950000524520874 -0.82966709136962891
      vertex -1.3835501670837402 1.9450000524520874 -0.82966709136962891
      vertex -1.3835501670837402 1.9450000524520874 -1.1240838766098022
    endloop
  endfacet
  facet normal -1 0 0
    outer loop
      vertex -1.3835501670837402 1.6950000524520874 -0.82966709136962891
      vertex -1.3835501670837402 1.9450000524520874 -1.1240838766098022
      vertex -1.3835501670837402 1.6950000524520874 -1.1240838766098022
    endloop
  endfacet
  facet normal -1 -0 0
    outer loop
      vertex -1.3835501670837402 1.6950000524520874 -0.82966709136962891
      vertex -1.3835501670837402 1.6950000524520874 -0.53525030612945557
      vertex -1.3835501670837402 1.9450000524520874 -0.53525030612945557
    endloop
  endfacet
  facet normal -1 -0 0
    outer loop
      vertex -1.3835501670837402 1.6950000524520874 -0.82966709136962891
      vertex -1.3835501670837402 1.9450000524520874 -0.53525030612945557
      vertex -1.3835501670837402 1.9450000524520874 -0.82966709136962891
    endloop
  endfacet
  facet normal -1 -0 0
    outer loop
      vertex -1.3835501670837402 1.6950000524520874 -0.53525030612945557
      vertex -1.3835501670837402 1.6950000524520874 -0.24083355069160461
      vertex -1.3835501670837402 1.9450000524520874 -0.24083355069160461
    endloop
  endfacet
  facet normal -1 -0 0
    outer loop
      vertex -1.3835501670837402 1.6950000524520874 -0.53525030612945557
      vertex -1.3835501670837402 1.9450000524520874 -0.24083355069160461
      vertex -1.3835501670837402 1.9450000524520874 -0.53525030612945557
    endloop
  endfacet
  facet normal -1 -0 -0
    outer loop
      vertex -1.3835501670837402 1.6950000524520874 0.05358322337269783
      vertex -1.3835501670837402 1.9450000524520874 0.05358322337269783
      vertex -1.3835501670837402 1.9450000524520874 -0.24083355069160461
    endloop
  endfacet
  facet normal -1 0 0
    outer loop
      vertex -1.3835501670837402 1.6950000524520874 0.05358322337269783
      vertex -1.3835501670837402 1.9450000524520874 -0.24083355069160461
      vertex -1.3835501670837402 1.6950000524520874 -0.24083355069160461
    endloop
  endfacet
  facet normal -1 -0 -0
    outer loop
      vertex -1.3835501670837402 1.6950000524520874 0.34799998998641968
      vertex -1.3835501670837402 1.9450000524520874 0.34799998998641968
      vertex -1.3835501670837402 1.9450000524520874 0.05358322337269783
    endloop
  endfacet
  facet normal -1 -0 -0
    outer loop
      vertex -1.3835501670837402 1.6950000524520874 0.34799998998641968
      vertex -1.3835501670837402 1.9450000524520874 0.05358322337269783
      vertex -1.3835501670837402 1.6950000524520874 0.05358322337269783
    endloop
  endfacet
  facet normal 0 0 1
    outer loop
      vertex -1.1068401336669922 1.6950000524520874 0.34799998998641968
      vertex -1.1068401336669922 1.9450000524520874 0.34799998998641968
      vertex -1.3835501670837402 1.9450000524520874 0.34799998998641968
    endloop
  endfacet
  facet normal 0 -0 1
    outer loop
      vertex -1.1068401336669922 1.6950000524520874 0.34799998998641968
      vertex -1.3835501670837402 1.9450000524520874 0.34799998998641968
      vertex -1.3835501670837402 1.6950000524520874 0.34799998998641968
    endloop
  endfacet
  facet normal 0 0 1
    outer loop
      vertex -0.55342006683349609 1.6950000524520874 0.34799998998641968
      vertex -0.55342006683349609 1.9450000524520874 0.34799998998641968
      vertex -0.83013010025024414 1.9450000524520874 0.34799998998641968
    endloop
  endfacet
  facet normal 0 -0 1
    outer loop
      vertex -0.55342006683349609 1.6950000524520874 0.34799998998641968
      vertex -0.83013010025024414 1.9450000524520874 0.34799998998641968
      vertex -0.83013010025024414 1.6950000524520874 0.34799998998641968
    endloop
  endfacet
  facet normal 0 0 1
    outer loop
      vertex -0.27671003341674805 1.6950000524520874 0.34799998998641968
      vertex -0.27671003341674805 1.9450000524520874 0.34799998998641968
      vertex -0.55342006683349609 1.9450000524520874 0.34799998998641968
    endloop
  endfacet
  facet normal 0 -0 1
    outer loop
      vertex -0.27671003341674805 1.6950000524520874 0.34799998998641968
      vertex -0.55342006683349609 1.9450000524520874 0.34799998998641968
      vertex -0.55342006683349609 1.6950000524520874 0.34799998998641968
    endloop
  endfacet
  facet normal 0 0 1
    outer loop
      vertex -0.83013010025024414 1.6950000524520874 0.34799998998641968
      vertex -0.83013010025024414 1.9450000524520874 0.34799998998641968
      vertex -1.1068401336669922 1.9450000524520874 0.34799998998641968
    endloop
  endfacet
  facet normal 0 -0 1
    outer loop
      vertex -0.83013010025024414 1.6950000524520874 0.34799998998641968
      vertex -1.1068401336669922 1.9450000524520874 0.34799998998641968
      vertex -1.1068401336669922 1.6950000524520874 0.34799998998641968
    endloop
  endfacet
  facet normal 0 0 1
    outer loop
      vertex 4.4408920985006262e-16 1.6950000524520874 0.34799998998641968
      vertex 4.4408920985006262e-16 1.9450000524520874 0.34799998998641968
      vertex -0.27671003341674805 1.9450000524520874 0.34799998998641968
    endloop
  endfacet
  facet normal 0 -0 1
    outer loop
      vertex 4.4408920985006262e-16 1.6950000524520874 0.34799998998641968
      vertex -0.27671003341674805 1.9450000524520874 0.34799998998641968
      vertex -0.27671003341674805 1.6950000524520874 0.34799998998641968
    endloop
  endfacet
  facet normal 0 0 1
    outer loop
      vertex 0.55342006683349609 1.6950000524520874 0.34799998998641968
      vertex 0.55342006683349609 1.9450000524520874 0.34799998998641968
      vertex 0.27671003341674805 1.9450000524520874 0.34799998998641968
    endloop
  endfacet
  facet normal 0 -0 1
    outer loop
      vertex 0.55342006683349609 1.6950000524520874 0.34799998998641968
      vertex 0.27671003341674805 1.9450000524520874 0.34799998998641968
      vertex 0.27671003341674805 1.6950000524520874 0.34799998998641968
    endloop
  endfacet
  facet normal 0 0 1
    outer loop
      vertex 1.1068401336669922 1.6950000524520874 0.34799998998641968
      vertex 1.1068401336669922 1.9450000524520874 0.34799998998641968
      vertex 0.83013010025024414 1.9450000524520874 0.34799998998641968
    endloop
  endfacet
  facet normal 0 -0 1
    outer loop
      vertex 1.1068401336669922 1.6950000524520874 0.34799998998641968
      vertex 0.83013010025024414 1.9450000524520874 0.34799998998641968
      vertex 0.83013010025024414 1.6950000524520874 0.34799998998641968
    endloop
  endfacet
  facet normal 0 0 1
    outer loop
      vertex 1.3835501670837402 1.6950000524520874 0.34799998998641968
      vertex 1.3835501670837402 1.9450000524520874 0.34799998998641968
      vertex 1.1068401336669922 1.9450000524520874 0.34799998998641968
    endloop
  endfacet
  facet normal 0 -0 1
    outer loop
      vertex 1.3835501670837402 1.6950000524520874 0.34799998998641968
      vertex 1.1068401336669922 1.9450000524520874 0.34799998998641968
      vertex 1.1068401336669922 1.6950000524520874 0.34799998998641968
    endloop
  endfacet
  facet normal 0 0 1
    outer loop
      vertex 0.83013010025024414 1.6950000524520874 0.34799998998641968
      vertex 0.83013010025024414 1.9450000524520874 0.34799998998641968
      vertex 0.55342006683349609 1.9450000524520874 0.34799998998641968
    endloop
  endfacet
  facet normal 0 -0 1
    outer loop
      vertex 0.83013010025024414 1.6950000524520874 0.34799998998641968
      vertex 0.55342006683349609 1.9450000524520874 0.34799998998641968
      vertex 0.55342006683349609 1.6950000524520874 0.34799998998641968
    endloop
  endfacet
  facet normal 0 0 1
    outer loop
      vertex 0.27671003341674805 1.6950000524520874 0.34799998998641968
      vertex 0.27671003341674805 1.9450000524520874 0.34799998998641968
      vertex 4.4408920985006262e-16 1.9450000524520874 0.34799998998641968
    endloop
  endfacet
  facet normal 0 -0 1
    outer loop
      vertex 0.27671003341674805 1.6950000524520874 0.34799998998641968
      vertex 4.4408920985006262e-16 1.9450000524520874 0.34799998998641968
      vertex 4.4408920985006262e-16 1.6950000524520874 0.34799998998641968
    endloop
  endfacet
  facet normal 1 0 -0
    outer loop
      vertex 1.3835501670837402 1.6950000524520874 0.05358322337269783
      vertex 1.3835501670837402 1.9450000524520874 0.05358322337269783
      vertex 1.3835501670837402 1.9450000524520874 0.34799998998641968
    endloop
  endfacet
  facet normal 1 0 -0
    outer loop
      vertex 1.3835501670837402 1.6950000524520874 0.05358322337269783
      vertex 1.3835501670837402 1.9450000524520874 0.34799998998641968
      vertex 1.3835501670837402 1.6950000524520874 0.34799998998641968
    endloop
  endfacet
  facet normal 1 0 -0
    outer loop
      vertex 1.3835501670837402 1.6950000524520874 -0.24083355069160461
      vertex 1.3835501670837402 1.9450000524520874 -0.24083355069160461
      vertex 1.3835501670837402 1.9450000524520874 0.05358322337269783
    endloop
  endfacet
  facet normal 1 -0 0
    outer loop
      vertex 1.3835501670837402 1.6950000524520874 -0.24083355069160461
      vertex 1.3835501670837402 1.9450000524520874 0.05358322337269783
      vertex 1.3835501670837402 1.6950000524520874 0.05358322337269783
    endloop
  endfacet
  facet normal 1 -0 0
    outer loop
      vertex 1.3835501670837402 1.9450000524520874 -0.24083355069160461
      vertex 1.3835501670837402 1.6950000524520874 -0.24083355069160461
      vertex 1.3835501670837402 1.6950000524520874 -0.53525030612945557
    endloop
  endfacet
  facet normal 1 0 0
    outer loop
      vertex 1.3835501670837402 1.9450000524520874 -0.24083355069160461
      vertex 1.3835501670837402 1.6950000524520874 -0.53525030612945557
      vertex 1.3835501670837402 1.9450000524520874 -0.53525030612945557
    endloop
  endfacet
  facet normal 1 0 -0
    outer loop
      vertex 1.3835501670837402 1.6950000524520874 -0.82966709136962891
      vertex 1.3835501670837402 1.9450000524520874 -0.82966709136962891
      vertex 1.3835501670837402 1.9450000524520874 -0.53525030612945557
    endloop
  endfacet
  facet normal 1 -0 0
    outer loop
      vertex 1.3835501670837402 1.6950000524520874 -0.82966709136962891
      vertex 1.3835501670837402 1.9450000524520874 -0.53525030612945557
      vertex 1.3835501670837402 1.6950000524520874 -0.53525030612945557
    endloop
  endfacet
  facet normal 1 0 -0
    outer loop
      vertex 1.3835501670837402 1.6950000524520874 -1.1240838766098022
      vertex 1.3835501670837402 1.9450000524520874 -1.1240838766098022
      vertex 1.3835501670837402 1.9450000524520874 -0.82966709136962891
    endloop
  endfacet
  facet normal 1 -0 0
    outer loop
      vertex 1.3835501670837402 1.6950000524520874 -1.1240838766098022
      vertex 1.3835501670837402 1.9450000524520874 -0.82966709136962891
      vertex 1.3835501670837402 1.6950000524520874 -0.82966709136962891
    endloop
  endfacet
  facet normal 0.27007275247751789 0 -0.9628399183505103
    outer loop
      vertex 1.1644773483276367 1.6950000524520874 -1.1855329275131226
      vertex 1.1644773483276367 1.9450000524520874 -1.1855329275131226
      vertex 1.3835501670837402 1.9450000524520874 -1.1240838766098022
    endloop
  endfacet
  facet normal 0.27007275247751789 0 -0.9628399183505103
    outer loop
      vertex 1.1644773483276367 1.6950000524520874 -1.1855329275131226
      vertex 1.3835501670837402 1.9450000524520874 -1.1240838766098022
      vertex 1.3835501670837402 1.6950000524520874 -1.1240838766098022
    endloop
  endfacet
  facet normal 0.27007219863897874 -0 -0.96284007369983726
    outer loop
      vertex 1.1644773483276367 1.9450000524520874 -1.1855329275131226
      vertex 1.1644773483276367 1.6950000524520874 -1.1855329275131226
      vertex 0.94540446996688843 1.6950000524520874 -1.2469818592071533
    endloop
  endfacet
  facet normal 0.27007219863897874 0 -0.96284007369983726
    outer loop
      vertex 1.1644773483276367 1.9450000524520874 -1.1855329275131226
      vertex 0.94540446996688843 1.6950000524520874 -1.2469818592071533
      vertex 0.94540446996688843 1.9450000524520874 -1.2469818592071533
    endloop
  endfacet
  facet normal 0.27007268435660675 0 -0.96283993745815122
    outer loop
      vertex 0.72633159160614014 1.6950000524520874 -1.3084309101104736
      vertex 0.72633159160614014 1.9450000524520874 -1.3084309101104736
      vertex 0.94540446996688843 1.9450000524520874 -1.2469818592071533
    endloop
  endfacet
  facet normal 0.27007268435660675 0 -0.96283993745815122
    outer loop
      vertex 0.72633159160614014 1.6950000524520874 -1.3084309101104736
      vertex 0.94540446996688843 1.9450000524520874 -1.2469818592071533
      vertex 0.94540446996688843 1.6950000524520874 -1.2469818592071533
    endloop
  endfacet
  facet normal 0 -0 -1
    outer loop
      vertex 0.43579897284507751 1.6950000524520874 -1.3084309101104736
      vertex 0.43579897284507751 1.9450000524520874 -1.3084309101104736
      vertex 0.72633159160614014 1.9450000524520874 -1.3084309101104736
    endloop
  endfacet
  facet normal 0 0 -1
    outer loop
      vertex 0.43579897284507751 1.6950000524520874 -1.3084309101104736
      vertex 0.72633159160614014 1.9450000524520874 -1.3084309101104736
      vertex 0.72633159160614014 1.6950000524520874 -1.3084309101104736
    endloop
  endfacet
  facet normal -0 -0 -1
    outer loop
      vertex 0.43579897284507751 1.6950000524520874 -1.3084309101104736
      vertex 0.1452663242816925 1.6950000524520874 -1.3084309101104736
      vertex 0.1452663242816925 1.9450000524520874 -1.3084309101104736
    endloop
  endfacet
  facet normal -0 -0 -1
    outer loop
      vertex 0.43579897284507751 1.6950000524520874 -1.3084309101104736
      vertex 0.1452663242816925 1.9450000524520874 -1.3084309101104736
      vertex 0.43579897284507751 1.9450000524520874 -1.3084309101104736
    endloop
  endfacet
  facet normal -0 -0 -1
    outer loop
      vertex 0.1452663242816925 1.6950000524520874 -1.3084309101104736
      vertex -0.1452663242816925 1.6950000524520874 -1.3084309101104736
      vertex -0.1452663242816925 1.9450000524520874 -1.3084309101104736
    endloop
  endfacet
  facet normal -0 -0 -1
    outer loop
      vertex 0.1452663242816925 1.6950000524520874 -1.3084309101104736
      vertex -0.1452663242816925 1.9450000524520874 -1.3084309101104736
      vertex 0.1452663242816925 1.9450000524520874 -1.3084309101104736
    endloop
  endfacet
  facet normal 0 -0 -1
    outer loop
      vertex -0.43579897284507751 1.6950000524520874 -1.3084309101104736
      vertex -0.43579897284507751 1.9450000524520874 -1.3084309101104736
      vertex -0.1452663242816925 1.9450000524520874 -1.3084309101104736
    endloop
  endfacet
  facet normal 0 0 -1
    outer loop
      vertex -0.43579897284507751 1.6950000524520874 -1.3084309101104736
      vertex -0.1452663242816925 1.9450000524520874 -1.3084309101104736
      vertex -0.1452663242816925 1.6950000524520874 -1.3084309101104736
    endloop
  endfacet
  facet normal 0 -0 -1
    outer loop
      vertex -0.72633159160614014 1.6950000524520874 -1.3084309101104736
      vertex -0.72633159160614014 1.9450000524520874 -1.3084309101104736
      vertex -0.43579897284507751 1.9450000524520874 -1.3084309101104736
    endloop
  endfacet
  facet normal 0 0 -1
    outer loop
      vertex -0.72633159160614014 1.6950000524520874 -1.3084309101104736
      vertex -0.43579897284507751 1.9450000524520874 -1.3084309101104736
      vertex -0.43579897284507751 1.6950000524520874 -1.3084309101104736
    endloop
  endfacet
endsolid OBJECT
